# 3ds Max Wavefront OBJ Exporter v0.97b - (c)2007 guruware
# File Created: 06.12.2017 12:31:43

mtllib TrashCan.mtl

#
# object TrashCan
#

v  0.1617 -0.2800 0.0995
v  0.0000 -0.3233 0.0995
v  0.0000 -0.2914 -0.0005
v  0.1457 -0.2523 -0.0005
v  0.2800 -0.1617 0.0995
v  0.2523 -0.1457 -0.0005
v  0.3233 -0.0000 0.0995
v  0.2914 -0.0000 -0.0005
v  0.2800 0.1617 0.0995
v  0.2523 0.1457 -0.0005
v  0.1617 0.2800 0.0995
v  0.1457 0.2523 -0.0005
v  0.0000 0.3233 0.0995
v  0.0000 0.2914 -0.0005
v  -0.1617 0.2800 0.0995
v  -0.1457 0.2523 -0.0005
v  -0.2800 0.1617 0.0995
v  -0.2523 0.1457 -0.0005
v  -0.3233 -0.0000 0.0995
v  -0.2914 -0.0000 -0.0005
v  -0.2800 -0.1617 0.0995
v  -0.2523 -0.1457 -0.0005
v  -0.1617 -0.2800 0.0995
v  -0.1457 -0.2523 -0.0005
v  0.1617 -0.2800 1.0011
v  0.0000 -0.3233 1.0011
v  0.2800 -0.1617 1.0011
v  0.3233 -0.0000 1.0011
v  0.2800 0.1617 1.0011
v  0.1617 0.2800 1.0011
v  0.0000 0.3233 1.0011
v  -0.1617 0.2800 1.0011
v  -0.2800 0.1617 1.0011
v  -0.3233 -0.0000 1.0011
v  -0.2800 -0.1617 1.0011
v  -0.1617 -0.2800 1.0011
v  0.2138 -0.3703 1.1454
v  0.0000 -0.4276 1.1454
v  0.3703 -0.2138 1.1454
v  0.4276 -0.0000 1.1454
v  0.3703 0.2138 1.1454
v  0.2138 0.3703 1.1454
v  0.0000 0.4276 1.1454
v  -0.2138 0.3703 1.1454
v  -0.3703 0.2138 1.1454
v  -0.4276 -0.0000 1.1454
v  -0.3703 -0.2138 1.1454
v  -0.2138 -0.3703 1.1454
v  0.1178 -0.2041 0.9568
v  0.2041 -0.1178 0.9568
v  0.2357 -0.0000 0.9568
v  0.2041 0.1178 0.9568
v  0.1178 0.2041 0.9568
v  0.0000 0.2357 0.9568
v  -0.1178 0.2041 0.9568
v  -0.2041 0.1178 0.9568
v  -0.2357 -0.0000 0.9568
v  -0.2041 -0.1178 0.9568
v  -0.1178 -0.2041 0.9568
v  0.0000 -0.2357 0.9568
v  0.1933 -0.3348 1.1454
v  0.0000 -0.3866 1.1454
v  0.3348 -0.1933 1.1454
v  0.3866 -0.0000 1.1454
v  0.3348 0.1933 1.1454
v  0.1933 0.3348 1.1454
v  0.0000 0.3866 1.1454
v  -0.1933 0.3348 1.1454
v  -0.3348 0.1933 1.1454
v  -0.3866 -0.0000 1.1454
v  -0.3348 -0.1933 1.1454
v  -0.1933 -0.3348 1.1454
v  0.1556 -0.2694 1.0854
v  0.0000 -0.3111 1.0854
v  0.2694 -0.1556 1.0854
v  0.3111 -0.0000 1.0854
v  0.2694 0.1556 1.0854
v  0.1556 0.2694 1.0854
v  0.0000 0.3111 1.0854
v  -0.1556 0.2694 1.0854
v  -0.2694 0.1556 1.0854
v  -0.3111 -0.0000 1.0854
v  -0.2694 -0.1556 1.0854
v  -0.1556 -0.2694 1.0854
# 84 vertices

vn 0.0000 -0.9886 -0.1504
vn 0.0000 -0.9525 -0.3045
vn 0.4763 -0.8249 -0.3045
vn 0.4763 -0.8249 -0.3045
vn 0.4943 -0.8562 -0.1504
vn 0.0000 -0.9886 -0.1504
vn 0.4943 -0.8562 -0.1504
vn 0.4763 -0.8249 -0.3045
vn 0.8249 -0.4763 -0.3045
vn 0.8249 -0.4763 -0.3045
vn 0.8562 -0.4943 -0.1504
vn 0.4943 -0.8562 -0.1504
vn 0.8562 -0.4943 -0.1504
vn 0.8249 -0.4763 -0.3045
vn 0.9525 0.0000 -0.3045
vn 0.9525 0.0000 -0.3045
vn 0.9886 0.0000 -0.1504
vn 0.8562 -0.4943 -0.1504
vn 0.9886 0.0000 -0.1504
vn 0.9525 0.0000 -0.3045
vn 0.8249 0.4763 -0.3045
vn 0.8249 0.4763 -0.3045
vn 0.8562 0.4943 -0.1504
vn 0.9886 0.0000 -0.1504
vn 0.8562 0.4943 -0.1504
vn 0.8249 0.4763 -0.3045
vn 0.4763 0.8249 -0.3045
vn 0.4763 0.8249 -0.3045
vn 0.4943 0.8562 -0.1504
vn 0.8562 0.4943 -0.1504
vn 0.4943 0.8562 -0.1504
vn 0.4763 0.8249 -0.3045
vn -0.0000 0.9525 -0.3045
vn -0.0000 0.9525 -0.3045
vn -0.0000 0.9886 -0.1504
vn 0.4943 0.8562 -0.1504
vn -0.0000 0.9886 -0.1504
vn -0.0000 0.9525 -0.3045
vn -0.4763 0.8249 -0.3045
vn -0.4763 0.8249 -0.3045
vn -0.4943 0.8562 -0.1504
vn -0.0000 0.9886 -0.1504
vn -0.4943 0.8562 -0.1504
vn -0.4763 0.8249 -0.3045
vn -0.8249 0.4763 -0.3045
vn -0.8249 0.4763 -0.3045
vn -0.8562 0.4943 -0.1504
vn -0.4943 0.8562 -0.1504
vn -0.8562 0.4943 -0.1504
vn -0.8249 0.4763 -0.3045
vn -0.9525 0.0000 -0.3045
vn -0.9525 0.0000 -0.3045
vn -0.9886 0.0000 -0.1504
vn -0.8562 0.4943 -0.1504
vn -0.9886 0.0000 -0.1504
vn -0.9525 0.0000 -0.3045
vn -0.8249 -0.4763 -0.3045
vn -0.8249 -0.4763 -0.3045
vn -0.8562 -0.4943 -0.1504
vn -0.9886 0.0000 -0.1504
vn -0.8562 -0.4943 -0.1504
vn -0.8249 -0.4763 -0.3045
vn -0.4763 -0.8249 -0.3045
vn -0.4763 -0.8249 -0.3045
vn -0.4943 -0.8562 -0.1504
vn -0.8562 -0.4943 -0.1504
vn -0.4943 -0.8562 -0.1504
vn -0.4763 -0.8249 -0.3045
vn 0.0000 -0.9525 -0.3045
vn 0.0000 -0.9525 -0.3045
vn 0.0000 -0.9886 -0.1504
vn -0.4943 -0.8562 -0.1504
vn 0.0000 -0.9462 -0.3237
vn 0.0000 -0.9886 -0.1504
vn 0.4943 -0.8562 -0.1504
vn 0.4943 -0.8562 -0.1504
vn 0.4731 -0.8194 -0.3237
vn 0.0000 -0.9462 -0.3237
vn 0.4731 -0.8194 -0.3237
vn 0.4943 -0.8562 -0.1504
vn 0.8562 -0.4943 -0.1504
vn 0.8562 -0.4943 -0.1504
vn 0.8194 -0.4731 -0.3237
vn 0.4731 -0.8194 -0.3237
vn 0.8194 -0.4731 -0.3237
vn 0.8562 -0.4943 -0.1504
vn 0.9886 0.0000 -0.1504
vn 0.9886 0.0000 -0.1504
vn 0.9462 0.0000 -0.3237
vn 0.8194 -0.4731 -0.3237
vn 0.9462 0.0000 -0.3237
vn 0.9886 0.0000 -0.1504
vn 0.8562 0.4943 -0.1504
vn 0.8562 0.4943 -0.1504
vn 0.8194 0.4731 -0.3237
vn 0.9462 0.0000 -0.3237
vn 0.8194 0.4731 -0.3237
vn 0.8562 0.4943 -0.1504
vn 0.4943 0.8562 -0.1504
vn 0.4943 0.8562 -0.1504
vn 0.4731 0.8194 -0.3237
vn 0.8194 0.4731 -0.3237
vn 0.4731 0.8194 -0.3237
vn 0.4943 0.8562 -0.1504
vn -0.0000 0.9886 -0.1504
vn -0.0000 0.9886 -0.1504
vn -0.0000 0.9462 -0.3237
vn 0.4731 0.8194 -0.3237
vn -0.0000 0.9462 -0.3237
vn -0.0000 0.9886 -0.1504
vn -0.4943 0.8562 -0.1504
vn -0.4943 0.8562 -0.1504
vn -0.4731 0.8194 -0.3237
vn -0.0000 0.9462 -0.3237
vn -0.4731 0.8194 -0.3237
vn -0.4943 0.8562 -0.1504
vn -0.8562 0.4943 -0.1504
vn -0.8562 0.4943 -0.1504
vn -0.8194 0.4731 -0.3237
vn -0.4731 0.8194 -0.3237
vn -0.8194 0.4731 -0.3237
vn -0.8562 0.4943 -0.1504
vn -0.9886 0.0000 -0.1504
vn -0.9886 0.0000 -0.1504
vn -0.9462 0.0000 -0.3237
vn -0.8194 0.4731 -0.3237
vn -0.9462 0.0000 -0.3237
vn -0.9886 0.0000 -0.1504
vn -0.8562 -0.4943 -0.1504
vn -0.8562 -0.4943 -0.1504
vn -0.8194 -0.4731 -0.3237
vn -0.9462 0.0000 -0.3237
vn -0.8194 -0.4731 -0.3237
vn -0.8562 -0.4943 -0.1504
vn -0.4943 -0.8562 -0.1504
vn -0.4943 -0.8562 -0.1504
vn -0.4731 -0.8194 -0.3237
vn -0.8194 -0.4731 -0.3237
vn -0.4731 -0.8194 -0.3237
vn -0.4943 -0.8562 -0.1504
vn 0.0000 -0.9886 -0.1504
vn 0.0000 -0.9886 -0.1504
vn 0.0000 -0.9462 -0.3237
vn -0.4731 -0.8194 -0.3237
vn 0.0000 -0.8106 -0.5857
vn 0.0000 -0.9462 -0.3237
vn 0.4731 -0.8194 -0.3237
vn 0.4731 -0.8194 -0.3237
vn 0.4053 -0.7020 -0.5857
vn 0.0000 -0.8106 -0.5857
vn 0.4053 -0.7020 -0.5857
vn 0.4731 -0.8194 -0.3237
vn 0.8194 -0.4731 -0.3237
vn 0.8194 -0.4731 -0.3237
vn 0.7020 -0.4053 -0.5857
vn 0.4053 -0.7020 -0.5857
vn 0.7020 -0.4053 -0.5857
vn 0.8194 -0.4731 -0.3237
vn 0.9462 0.0000 -0.3237
vn 0.9462 0.0000 -0.3237
vn 0.8106 0.0000 -0.5857
vn 0.7020 -0.4053 -0.5857
vn 0.8106 0.0000 -0.5857
vn 0.9462 0.0000 -0.3237
vn 0.8194 0.4731 -0.3237
vn 0.8194 0.4731 -0.3237
vn 0.7020 0.4053 -0.5857
vn 0.8106 0.0000 -0.5857
vn 0.7020 0.4053 -0.5857
vn 0.8194 0.4731 -0.3237
vn 0.4731 0.8194 -0.3237
vn 0.4731 0.8194 -0.3237
vn 0.4053 0.7020 -0.5857
vn 0.7020 0.4053 -0.5857
vn 0.4053 0.7020 -0.5857
vn 0.4731 0.8194 -0.3237
vn -0.0000 0.9462 -0.3237
vn -0.0000 0.9462 -0.3237
vn -0.0000 0.8106 -0.5857
vn 0.4053 0.7020 -0.5857
vn -0.0000 0.8106 -0.5857
vn -0.0000 0.9462 -0.3237
vn -0.4731 0.8194 -0.3237
vn -0.4731 0.8194 -0.3237
vn -0.4053 0.7020 -0.5857
vn -0.0000 0.8106 -0.5857
vn -0.4053 0.7020 -0.5857
vn -0.4731 0.8194 -0.3237
vn -0.8194 0.4731 -0.3237
vn -0.8194 0.4731 -0.3237
vn -0.7020 0.4053 -0.5857
vn -0.4053 0.7020 -0.5857
vn -0.7020 0.4053 -0.5857
vn -0.8194 0.4731 -0.3237
vn -0.9462 0.0000 -0.3237
vn -0.9462 0.0000 -0.3237
vn -0.8106 0.0000 -0.5857
vn -0.7020 0.4053 -0.5857
vn -0.8106 0.0000 -0.5857
vn -0.9462 0.0000 -0.3237
vn -0.8194 -0.4731 -0.3237
vn -0.8194 -0.4731 -0.3237
vn -0.7020 -0.4053 -0.5857
vn -0.8106 0.0000 -0.5857
vn -0.7020 -0.4053 -0.5857
vn -0.8194 -0.4731 -0.3237
vn -0.4731 -0.8194 -0.3237
vn -0.4731 -0.8194 -0.3237
vn -0.4053 -0.7020 -0.5857
vn -0.7020 -0.4053 -0.5857
vn -0.4053 -0.7020 -0.5857
vn -0.4731 -0.8194 -0.3237
vn 0.0000 -0.9462 -0.3237
vn 0.0000 -0.9462 -0.3237
vn 0.0000 -0.8106 -0.5857
vn -0.4053 -0.7020 -0.5857
vn 0.0000 0.0000 1.0000
vn 0.0000 0.0000 1.0000
vn 0.0000 0.0000 1.0000
vn 0.0000 0.0000 1.0000
vn 0.0000 0.0000 1.0000
vn 0.0000 0.0000 1.0000
vn 0.0000 0.0000 1.0000
vn 0.0000 0.0000 1.0000
vn 0.0000 0.0000 1.0000
vn 0.0000 0.0000 1.0000
vn 0.0000 0.0000 1.0000
vn 0.0000 0.0000 1.0000
vn 0.0000 0.0000 1.0000
vn 0.0000 0.0000 1.0000
vn 0.0000 0.0000 1.0000
vn 0.0000 0.0000 1.0000
vn 0.0000 0.0000 1.0000
vn 0.0000 0.0000 1.0000
vn 0.0000 0.0000 1.0000
vn 0.0000 0.0000 1.0000
vn 0.0000 0.0000 1.0000
vn 0.0000 0.0000 1.0000
vn 0.0000 0.0000 1.0000
vn 0.0000 0.0000 1.0000
vn 0.0000 0.0000 1.0000
vn 0.0000 0.0000 1.0000
vn 0.0000 0.0000 1.0000
vn 0.0000 0.0000 1.0000
vn 0.0000 0.0000 1.0000
vn 0.0000 0.0000 1.0000
vn -0.0000 0.2791 0.9603
vn 0.0000 0.0000 1.0000
vn 0.0000 0.0000 1.0000
vn 0.0000 0.0000 1.0000
vn -0.1395 0.2417 0.9603
vn -0.0000 0.2791 0.9603
vn -0.1395 0.2417 0.9603
vn 0.0000 0.0000 1.0000
vn 0.0000 0.0000 1.0000
vn 0.0000 0.0000 1.0000
vn -0.2417 0.1395 0.9603
vn -0.1395 0.2417 0.9603
vn -0.2417 0.1395 0.9603
vn 0.0000 0.0000 1.0000
vn 0.0000 0.0000 1.0000
vn 0.0000 0.0000 1.0000
vn -0.2791 -0.0000 0.9603
vn -0.2417 0.1395 0.9603
vn -0.2791 -0.0000 0.9603
vn 0.0000 0.0000 1.0000
vn 0.0000 0.0000 1.0000
vn 0.0000 0.0000 1.0000
vn -0.2417 -0.1395 0.9603
vn -0.2791 -0.0000 0.9603
vn -0.2417 -0.1395 0.9603
vn 0.0000 0.0000 1.0000
vn 0.0000 0.0000 1.0000
vn 0.0000 0.0000 1.0000
vn -0.1395 -0.2417 0.9603
vn -0.2417 -0.1395 0.9603
vn -0.1395 -0.2417 0.9603
vn 0.0000 0.0000 1.0000
vn 0.0000 0.0000 1.0000
vn 0.0000 0.0000 1.0000
vn 0.0000 -0.2791 0.9603
vn -0.1395 -0.2417 0.9603
vn 0.0000 -0.2791 0.9603
vn 0.0000 0.0000 1.0000
vn 0.0000 0.0000 1.0000
vn 0.0000 0.0000 1.0000
vn 0.1395 -0.2417 0.9603
vn 0.0000 -0.2791 0.9603
vn 0.1395 -0.2417 0.9603
vn 0.0000 0.0000 1.0000
vn 0.0000 0.0000 1.0000
vn 0.0000 0.0000 1.0000
vn 0.2417 -0.1395 0.9603
vn 0.1395 -0.2417 0.9603
vn 0.2417 -0.1395 0.9603
vn 0.0000 0.0000 1.0000
vn 0.0000 0.0000 1.0000
vn 0.0000 0.0000 1.0000
vn 0.2791 -0.0000 0.9603
vn 0.2417 -0.1395 0.9603
vn 0.2791 -0.0000 0.9603
vn 0.0000 0.0000 1.0000
vn 0.0000 0.0000 1.0000
vn 0.0000 0.0000 1.0000
vn 0.2417 0.1395 0.9603
vn 0.2791 -0.0000 0.9603
vn 0.2417 0.1395 0.9603
vn 0.0000 0.0000 1.0000
vn 0.0000 0.0000 1.0000
vn 0.0000 0.0000 1.0000
vn 0.1395 0.2417 0.9603
vn 0.2417 0.1395 0.9603
vn 0.1395 0.2417 0.9603
vn 0.0000 0.0000 1.0000
vn 0.0000 0.0000 1.0000
vn 0.0000 0.0000 1.0000
vn -0.0000 0.2791 0.9603
vn 0.1395 0.2417 0.9603
vn -0.0000 0.7417 0.6708
vn -0.0000 0.2791 0.9603
vn -0.1395 0.2417 0.9603
vn -0.1395 0.2417 0.9603
vn -0.3708 0.6423 0.6708
vn -0.0000 0.7417 0.6708
vn -0.3708 0.6423 0.6708
vn -0.1395 0.2417 0.9603
vn -0.2417 0.1395 0.9603
vn -0.2417 0.1395 0.9603
vn -0.6423 0.3708 0.6708
vn -0.3708 0.6423 0.6708
vn -0.6423 0.3708 0.6708
vn -0.2417 0.1395 0.9603
vn -0.2791 -0.0000 0.9603
vn -0.2791 -0.0000 0.9603
vn -0.7417 -0.0000 0.6708
vn -0.6423 0.3708 0.6708
vn -0.7417 -0.0000 0.6708
vn -0.2791 -0.0000 0.9603
vn -0.2417 -0.1395 0.9603
vn -0.2417 -0.1395 0.9603
vn -0.6423 -0.3708 0.6708
vn -0.7417 -0.0000 0.6708
vn -0.6423 -0.3708 0.6708
vn -0.2417 -0.1395 0.9603
vn -0.1395 -0.2417 0.9603
vn -0.1395 -0.2417 0.9603
vn -0.3708 -0.6423 0.6708
vn -0.6423 -0.3708 0.6708
vn -0.3708 -0.6423 0.6708
vn -0.1395 -0.2417 0.9603
vn 0.0000 -0.2791 0.9603
vn 0.0000 -0.2791 0.9603
vn 0.0000 -0.7417 0.6708
vn -0.3708 -0.6423 0.6708
vn 0.0000 -0.7417 0.6708
vn 0.0000 -0.2791 0.9603
vn 0.1395 -0.2417 0.9603
vn 0.1395 -0.2417 0.9603
vn 0.3708 -0.6423 0.6708
vn 0.0000 -0.7417 0.6708
vn 0.3708 -0.6423 0.6708
vn 0.1395 -0.2417 0.9603
vn 0.2417 -0.1395 0.9603
vn 0.2417 -0.1395 0.9603
vn 0.6423 -0.3708 0.6708
vn 0.3708 -0.6423 0.6708
vn 0.6423 -0.3708 0.6708
vn 0.2417 -0.1395 0.9603
vn 0.2791 -0.0000 0.9603
vn 0.2791 -0.0000 0.9603
vn 0.7417 -0.0000 0.6708
vn 0.6423 -0.3708 0.6708
vn 0.7417 -0.0000 0.6708
vn 0.2791 -0.0000 0.9603
vn 0.2417 0.1395 0.9603
vn 0.2417 0.1395 0.9603
vn 0.6423 0.3708 0.6708
vn 0.7417 -0.0000 0.6708
vn 0.6423 0.3708 0.6708
vn 0.2417 0.1395 0.9603
vn 0.1395 0.2417 0.9603
vn 0.1395 0.2417 0.9603
vn 0.3708 0.6423 0.6708
vn 0.6423 0.3708 0.6708
vn 0.3708 0.6423 0.6708
vn 0.1395 0.2417 0.9603
vn -0.0000 0.2791 0.9603
vn -0.0000 0.2791 0.9603
vn -0.0000 0.7417 0.6708
vn 0.3708 0.6423 0.6708
vn -0.0000 0.8625 0.5060
vn -0.0000 0.7417 0.6708
vn -0.3708 0.6423 0.6708
vn -0.3708 0.6423 0.6708
vn -0.4313 0.7470 0.5060
vn -0.0000 0.8625 0.5060
vn -0.4313 0.7470 0.5060
vn -0.3708 0.6423 0.6708
vn -0.6423 0.3708 0.6708
vn -0.6423 0.3708 0.6708
vn -0.7470 0.4313 0.5060
vn -0.4313 0.7470 0.5060
vn -0.7470 0.4313 0.5060
vn -0.6423 0.3708 0.6708
vn -0.7417 -0.0000 0.6708
vn -0.7417 -0.0000 0.6708
vn -0.8625 -0.0000 0.5060
vn -0.7470 0.4313 0.5060
vn -0.8625 -0.0000 0.5060
vn -0.7417 -0.0000 0.6708
vn -0.6423 -0.3708 0.6708
vn -0.6423 -0.3708 0.6708
vn -0.7470 -0.4313 0.5060
vn -0.8625 -0.0000 0.5060
vn -0.7470 -0.4313 0.5060
vn -0.6423 -0.3708 0.6708
vn -0.3708 -0.6423 0.6708
vn -0.3708 -0.6423 0.6708
vn -0.4313 -0.7470 0.5060
vn -0.7470 -0.4313 0.5060
vn -0.4313 -0.7470 0.5060
vn -0.3708 -0.6423 0.6708
vn 0.0000 -0.7417 0.6708
vn 0.0000 -0.7417 0.6708
vn 0.0000 -0.8625 0.5060
vn -0.4313 -0.7470 0.5060
vn 0.0000 -0.8625 0.5060
vn 0.0000 -0.7417 0.6708
vn 0.3708 -0.6423 0.6708
vn 0.3708 -0.6423 0.6708
vn 0.4313 -0.7470 0.5060
vn 0.0000 -0.8625 0.5060
vn 0.4313 -0.7470 0.5060
vn 0.3708 -0.6423 0.6708
vn 0.6423 -0.3708 0.6708
vn 0.6423 -0.3708 0.6708
vn 0.7470 -0.4313 0.5060
vn 0.4313 -0.7470 0.5060
vn 0.7470 -0.4313 0.5060
vn 0.6423 -0.3708 0.6708
vn 0.7417 -0.0000 0.6708
vn 0.7417 -0.0000 0.6708
vn 0.8625 -0.0000 0.5060
vn 0.7470 -0.4313 0.5060
vn 0.8625 -0.0000 0.5060
vn 0.7417 -0.0000 0.6708
vn 0.6423 0.3708 0.6708
vn 0.6423 0.3708 0.6708
vn 0.7470 0.4313 0.5060
vn 0.8625 -0.0000 0.5060
vn 0.7470 0.4313 0.5060
vn 0.6423 0.3708 0.6708
vn 0.3708 0.6423 0.6708
vn 0.3708 0.6423 0.6708
vn 0.4313 0.7470 0.5060
vn 0.7470 0.4313 0.5060
vn 0.4313 0.7470 0.5060
vn 0.3708 0.6423 0.6708
vn -0.0000 0.7417 0.6708
vn -0.0000 0.7417 0.6708
vn -0.0000 0.8625 0.5060
vn 0.4313 0.7470 0.5060
# 462 vertex normals

vt 0.3174 0.4931 0.0000
vt 0.3156 0.5418 0.0000
vt 0.2496 0.5396 0.0000
vt 0.2499 0.4907 0.0000
vt 0.1834 0.5402 0.0000
vt 0.1822 0.4914 0.0000
vt 0.1171 0.5426 0.0000
vt 0.1143 0.4950 0.0000
vt 0.0530 0.5492 0.0000
vt 0.0447 0.5008 0.0000
vt 0.8494 0.6048 0.0000
vt 0.8319 0.6509 0.0000
vt 0.7705 0.6274 0.0000
vt 0.7837 0.5807 0.0000
vt 0.7072 0.6077 0.0000
vt 0.7186 0.5603 0.0000
vt 0.6426 0.5906 0.0000
vt 0.6526 0.5430 0.0000
vt 0.5778 0.5757 0.0000
vt 0.5857 0.5276 0.0000
vt 0.5127 0.5637 0.0000
vt 0.5190 0.5155 0.0000
vt 0.4471 0.5540 0.0000
vt 0.4520 0.5056 0.0000
vt 0.3814 0.5467 0.0000
vt 0.3848 0.4981 0.0000
vt 0.3394 0.0968 0.0000
vt 0.2604 0.0936 0.0000
vt 0.1818 0.0934 0.0000
vt 0.1050 0.0967 0.0000
vt 0.0325 0.1041 0.0000
vt 0.9501 0.2299 0.0000
vt 0.8817 0.1999 0.0000
vt 0.8071 0.1758 0.0000
vt 0.7302 0.1555 0.0000
vt 0.6537 0.1382 0.0000
vt 0.5757 0.1236 0.0000
vt 0.4972 0.1119 0.0000
vt 0.4184 0.1030 0.0000
vt 0.3429 0.0143 0.0000
vt 0.2610 0.0110 0.0000
vt 0.1787 0.0110 0.0000
vt 0.0949 0.0157 0.0000
vt 0.0088 0.0316 0.0000
vt 0.9942 0.1640 0.0000
vt 0.9108 0.1196 0.0000
vt 0.8278 0.0947 0.0000
vt 0.7469 0.0742 0.0000
vt 0.6667 0.0566 0.0000
vt 0.5863 0.0420 0.0000
vt 0.5055 0.0299 0.0000
vt 0.4243 0.0207 0.0000
vt 0.2813 0.7641 0.8276
vt 0.2392 0.8103 0.8276
vt 0.1817 0.8272 0.8276
vt 0.1242 0.8103 0.8276
vt 0.0821 0.7641 0.8276
vt 0.0667 0.7010 0.8276
vt 0.0821 0.6378 0.8276
vt 0.1242 0.5916 0.8276
vt 0.1817 0.5747 0.8276
vt 0.2392 0.5916 0.8276
vt 0.2813 0.6378 0.8276
vt 0.2967 0.7010 0.8276
vt 0.4314 0.7694 0.0000
vt 0.4486 0.7733 0.0000
vt 0.4121 0.8647 0.0000
vt 0.3971 0.8545 0.0000
vt 0.3496 0.9376 0.0000
vt 0.3387 0.9223 0.0000
vt 0.2676 0.9832 0.0000
vt 0.2629 0.9644 0.0000
vt 0.1745 0.9911 0.0000
vt 0.1780 0.9724 0.0000
vt 0.4678 0.9582 0.0000
vt 0.4510 0.9606 0.0000
vt 0.4690 0.8617 0.0000
vt 0.4855 0.8679 0.0000
vt 0.5172 0.7768 0.0000
vt 0.5308 0.7891 0.0000
vt 0.5886 0.7151 0.0000
vt 0.5976 0.7317 0.0000
vt 0.6746 0.6834 0.0000
vt 0.6780 0.7023 0.0000
vt 0.7653 0.6851 0.0000
vt 0.7628 0.7042 0.0000
vt 0.8503 0.7196 0.0000
vt 0.8421 0.7368 0.0000
vt 0.4165 0.5866 0.0000
vt 0.4322 0.5778 0.0000
vt 0.4555 0.6740 0.0000
vt 0.4381 0.6766 0.0000
vt 0.3916 0.7572 0.0000
vt 0.3632 0.8285 0.0000
vt 0.3148 0.8850 0.0000
vt 0.2521 0.9200 0.0000
vt 0.1835 0.9287 0.0000
vt 0.5071 0.9586 0.0000
vt 0.5236 0.8851 0.0000
vt 0.5610 0.8199 0.0000
vt 0.6164 0.7719 0.0000
vt 0.6835 0.7472 0.0000
vt 0.7543 0.7485 0.0000
vt 0.8207 0.7755 0.0000
vt 0.3786 0.6045 0.0000
vt 0.3969 0.6797 0.0000
vt 0.3304 0.7406 0.0000
vt 0.3106 0.7904 0.0000
vt 0.2768 0.8299 0.0000
vt 0.2328 0.8544 0.0000
vt 0.1833 0.8615 0.0000
vt 0.5694 0.9673 0.0000
vt 0.5822 0.9126 0.0000
vt 0.6082 0.8660 0.0000
vt 0.6467 0.8324 0.0000
vt 0.6934 0.8153 0.0000
vt 0.7429 0.8164 0.0000
vt 0.7894 0.8355 0.0000
vt 0.3214 0.6333 0.0000
vt 0.3342 0.6861 0.0000
# 120 texture coords

o TrashCan
g TrashCan
usemtl TrashCanLOW
s 1
f 2/1/1 3/2/2 4/3/3 
f 4/3/4 1/4/5 2/1/6 
f 1/4/7 4/3/8 6/5/9 
f 6/5/10 5/6/11 1/4/12 
f 5/6/13 6/5/14 8/7/15 
f 8/7/16 7/8/17 5/6/18 
f 7/8/19 8/7/20 10/9/21 
f 10/9/22 9/10/23 7/8/24 
f 9/11/25 10/12/26 12/13/27 
f 12/13/28 11/14/29 9/11/30 
f 11/14/31 12/13/32 14/15/33 
f 14/15/34 13/16/35 11/14/36 
f 13/16/37 14/15/38 16/17/39 
f 16/17/40 15/18/41 13/16/42 
f 15/18/43 16/17/44 18/19/45 
f 18/19/46 17/20/47 15/18/48 
f 17/20/49 18/19/50 20/21/51 
f 20/21/52 19/22/53 17/20/54 
f 19/22/55 20/21/56 22/23/57 
f 22/23/58 21/24/59 19/22/60 
f 21/24/61 22/23/62 24/25/63 
f 24/25/64 23/26/65 21/24/66 
f 23/26/67 24/25/68 3/2/69 
f 3/2/70 2/1/71 23/26/72 
f 26/27/73 2/1/74 1/4/75 
f 1/4/76 25/28/77 26/27/78 
f 25/28/79 1/4/80 5/6/81 
f 5/6/82 27/29/83 25/28/84 
f 27/29/85 5/6/86 7/8/87 
f 7/8/88 28/30/89 27/29/90 
f 28/30/91 7/8/92 9/10/93 
f 9/10/94 29/31/95 28/30/96 
f 29/32/97 9/11/98 11/14/99 
f 11/14/100 30/33/101 29/32/102 
f 30/33/103 11/14/104 13/16/105 
f 13/16/106 31/34/107 30/33/108 
f 31/34/109 13/16/110 15/18/111 
f 15/18/112 32/35/113 31/34/114 
f 32/35/115 15/18/116 17/20/117 
f 17/20/118 33/36/119 32/35/120 
f 33/36/121 17/20/122 19/22/123 
f 19/22/124 34/37/125 33/36/126 
f 34/37/127 19/22/128 21/24/129 
f 21/24/130 35/38/131 34/37/132 
f 35/38/133 21/24/134 23/26/135 
f 23/26/136 36/39/137 35/38/138 
f 36/39/139 23/26/140 2/1/141 
f 2/1/142 26/27/143 36/39/144 
f 38/40/145 26/27/146 25/28/147 
f 25/28/148 37/41/149 38/40/150 
f 37/41/151 25/28/152 27/29/153 
f 27/29/154 39/42/155 37/41/156 
f 39/42/157 27/29/158 28/30/159 
f 28/30/160 40/43/161 39/42/162 
f 40/43/163 28/30/164 29/31/165 
f 29/31/166 41/44/167 40/43/168 
f 41/45/169 29/32/170 30/33/171 
f 30/33/172 42/46/173 41/45/174 
f 42/46/175 30/33/176 31/34/177 
f 31/34/178 43/47/179 42/46/180 
f 43/47/181 31/34/182 32/35/183 
f 32/35/184 44/48/185 43/47/186 
f 44/48/187 32/35/188 33/36/189 
f 33/36/190 45/49/191 44/48/192 
f 45/49/193 33/36/194 34/37/195 
f 34/37/196 46/50/197 45/49/198 
f 46/50/199 34/37/200 35/38/201 
f 35/38/202 47/51/203 46/50/204 
f 47/51/205 35/38/206 36/39/207 
f 36/39/208 48/52/209 47/51/210 
f 48/52/211 36/39/212 26/27/213 
f 26/27/214 38/40/215 48/52/216 
usemtl default
f 49/53/217 50/54/218 51/55/219 
f 51/55/220 52/56/221 53/57/222 
f 53/57/223 54/58/224 55/59/225 
f 51/55/226 53/57/227 55/59/228 
f 55/59/229 56/60/230 57/61/231 
f 57/61/232 58/62/233 59/63/234 
f 55/59/235 57/61/236 59/63/237 
f 51/55/238 55/59/239 59/63/240 
f 49/53/241 51/55/242 59/63/243 
f 60/64/244 49/53/245 59/63/246 
usemtl Material__37
s 2
f 62/65/247 38/66/248 37/67/249 
f 37/67/250 61/68/251 62/65/252 
f 61/68/253 37/67/254 39/69/255 
f 39/69/256 63/70/257 61/68/258 
f 63/70/259 39/69/260 40/71/261 
f 40/71/262 64/72/263 63/70/264 
f 64/72/265 40/71/266 41/73/267 
f 41/73/268 65/74/269 64/72/270 
f 65/75/271 41/76/272 42/77/273 
f 42/77/274 66/78/275 65/75/276 
f 66/78/277 42/77/278 43/79/279 
f 43/79/280 67/80/281 66/78/282 
f 67/80/283 43/79/284 44/81/285 
f 44/81/286 68/82/287 67/80/288 
f 68/82/289 44/81/290 45/83/291 
f 45/83/292 69/84/293 68/82/294 
f 69/84/295 45/83/296 46/85/297 
f 46/85/298 70/86/299 69/84/300 
f 70/86/301 46/85/302 47/87/303 
f 47/87/304 71/88/305 70/86/306 
f 71/89/307 47/90/308 48/91/309 
f 48/91/310 72/92/311 71/89/312 
f 72/92/313 48/91/314 38/66/315 
f 38/66/316 62/65/317 72/92/318 
usemtl TrashCanLOW
f 74/93/319 62/65/320 61/68/321 
f 61/68/322 73/94/323 74/93/324 
f 73/94/325 61/68/326 63/70/327 
f 63/70/328 75/95/329 73/94/330 
f 75/95/331 63/70/332 64/72/333 
f 64/72/334 76/96/335 75/95/336 
f 76/96/337 64/72/338 65/74/339 
f 65/74/340 77/97/341 76/96/342 
f 77/98/343 65/75/344 66/78/345 
f 66/78/346 78/99/347 77/98/348 
f 78/99/349 66/78/350 67/80/351 
f 67/80/352 79/100/353 78/99/354 
f 79/100/355 67/80/356 68/82/357 
f 68/82/358 80/101/359 79/100/360 
f 80/101/361 68/82/362 69/84/363 
f 69/84/364 81/102/365 80/101/366 
f 81/102/367 69/84/368 70/86/369 
f 70/86/370 82/103/371 81/102/372 
f 82/103/373 70/86/374 71/88/375 
f 71/88/376 83/104/377 82/103/378 
f 83/105/379 71/89/380 72/92/381 
f 72/92/382 84/106/383 83/105/384 
f 84/106/385 72/92/386 62/65/387 
f 62/65/388 74/93/389 84/106/390 
f 60/107/391 74/93/392 73/94/393 
f 73/94/394 49/108/395 60/107/396 
f 49/108/397 73/94/398 75/95/399 
f 75/95/400 50/109/401 49/108/402 
f 50/109/403 75/95/404 76/96/405 
f 76/96/406 51/110/407 50/109/408 
f 51/110/409 76/96/410 77/97/411 
f 77/97/412 52/111/413 51/110/414 
f 52/112/415 77/98/416 78/99/417 
f 78/99/418 53/113/419 52/112/420 
f 53/113/421 78/99/422 79/100/423 
f 79/100/424 54/114/425 53/113/426 
f 54/114/427 79/100/428 80/101/429 
f 80/101/430 55/115/431 54/114/432 
f 55/115/433 80/101/434 81/102/435 
f 81/102/436 56/116/437 55/115/438 
f 56/116/439 81/102/440 82/103/441 
f 82/103/442 57/117/443 56/116/444 
f 57/117/445 82/103/446 83/104/447 
f 83/104/448 58/118/449 57/117/450 
f 58/119/451 83/105/452 84/106/453 
f 84/106/454 59/120/455 58/119/456 
f 59/120/457 84/106/458 74/93/459 
f 74/93/460 60/107/461 59/120/462 
# 154 faces

