# 3ds Max Wavefront OBJ Exporter v0.97b - (c)2007 guruware
# File Created: 17.03.2017 12:44:30

mtllib Sign_KMH_90.mtl

#
# object Sign_KMH_90
#

v  -0.026100 -0.029700 2.956900
v  0.037400 -0.029700 2.956900
v  0.037400 0.033800 2.956900
v  -0.026100 0.033800 2.956900
v  -0.026100 -0.029700 -2.381486
v  0.037399 -0.029700 -2.381486
v  0.037399 0.033800 -2.381486
v  -0.026100 0.033800 -2.381486
v  -0.061100 -0.044700 2.970100
v  -0.120000 -0.044700 2.958800
v  -0.177100 -0.044700 2.940300
v  0.058600 -0.044700 2.970100
v  -0.231400 -0.044700 2.914700
v  -0.282000 -0.044700 2.882600
v  -0.369300 -0.044700 2.800600
v  -0.328200 -0.044700 2.844400
v  -0.404600 -0.044700 2.752100
v  -0.433500 -0.044700 2.699500
v  -0.470500 -0.044700 2.585600
v  -0.455500 -0.044700 2.643700
v  -0.328200 -0.044700 2.147900
v  -0.478000 -0.044700 2.526100
v  -0.478000 -0.044700 2.466100
v  -0.455500 -0.044700 2.348500
v  -0.470500 -0.044700 2.406600
v  -0.433500 -0.044700 2.292700
v  -0.404600 -0.044700 2.240200
v  -0.369300 -0.044700 2.191600
v  -0.282000 -0.044700 2.109700
v  -0.231400 -0.044700 2.077500
v  -0.120000 -0.044700 2.033400
v  -0.177100 -0.044700 2.052000
v  -0.061100 -0.044700 2.022200
v  -0.001200 -0.044700 2.018400
v  0.117600 -0.044700 2.033400
v  0.058600 -0.044700 2.022200
v  0.453100 -0.044700 2.348500
v  0.174600 -0.044700 2.052000
v  0.228900 -0.044700 2.077500
v  0.325800 -0.044700 2.147900
v  0.279600 -0.044700 2.109700
v  0.366800 -0.044700 2.191600
v  0.402100 -0.044700 2.240200
v  0.431000 -0.044700 2.292700
v  0.366800 -0.044700 2.800600
v  0.468000 -0.044700 2.406600
v  0.475500 -0.044700 2.466100
v  0.468000 -0.044700 2.585600
v  0.475500 -0.044700 2.526100
v  0.453100 -0.044700 2.643700
v  0.431000 -0.044700 2.699500
v  0.402100 -0.044700 2.752100
v  0.325800 -0.044700 2.844400
v  0.279600 -0.044700 2.882600
v  0.174600 -0.044700 2.940300
v  0.228900 -0.044700 2.914700
v  0.117600 -0.044700 2.958800
v  -0.001200 -0.044700 2.973800
v  0.461500 -0.042900 2.377300
v  0.442900 -0.042900 2.320300
v  0.417400 -0.042900 2.266000
v  0.476500 -0.042900 2.496100
v  0.385200 -0.042900 2.215300
v  0.347000 -0.042900 2.169100
v  0.254700 -0.042900 2.092800
v  0.303300 -0.042900 2.128100
v  0.202200 -0.042900 2.063900
v  0.146400 -0.042900 2.041800
v  0.028800 -0.042900 2.019400
v  0.088300 -0.042900 2.026900
v  -0.387700 -0.042900 2.215300
v  -0.031200 -0.042900 2.019400
v  -0.090700 -0.042900 2.026900
v  -0.204600 -0.042900 2.063900
v  -0.148800 -0.042900 2.041800
v  -0.257200 -0.042900 2.092800
v  -0.305700 -0.042900 2.128100
v  -0.349400 -0.042900 2.169100
v  -0.419800 -0.042900 2.266000
v  -0.445400 -0.042900 2.320300
v  -0.475200 -0.042900 2.436300
v  -0.463900 -0.042900 2.377300
v  -0.478900 -0.042900 2.496100
v  -0.475200 -0.042900 2.556000
v  -0.445400 -0.042900 2.672000
v  -0.463900 -0.042900 2.614900
v  -0.090700 -0.042900 2.965400
v  -0.419800 -0.042900 2.726300
v  -0.387700 -0.042900 2.776900
v  -0.305700 -0.042900 2.864200
v  -0.349500 -0.042900 2.823100
v  -0.257200 -0.042900 2.899500
v  -0.204600 -0.042900 2.928400
v  -0.148800 -0.042900 2.950400
v  0.347000 -0.042900 2.823100
v  -0.031200 -0.042900 2.972900
v  0.028800 -0.042900 2.972900
v  0.146400 -0.042900 2.950400
v  0.088300 -0.042900 2.965400
v  0.202200 -0.042900 2.928400
v  0.254700 -0.042900 2.899500
v  0.303300 -0.042900 2.864200
v  0.385200 -0.042900 2.776900
v  0.417400 -0.042900 2.726300
v  0.461500 -0.042900 2.614900
v  0.442900 -0.042900 2.672000
v  0.472700 -0.042900 2.556000
v  0.472700 -0.042900 2.436300
# 108 vertices

vn 0.000000 0.000000 1.000000
vn 0.000000 0.000000 1.000000
vn 0.000000 0.000000 1.000000
vn 0.000000 0.000000 1.000000
vn 0.000000 0.000000 1.000000
vn 0.000000 0.000000 1.000000
vn 0.000000 -1.000000 -0.000000
vn 0.000000 -1.000000 -0.000000
vn 0.000000 -1.000000 -0.000000
vn 0.000000 -1.000000 -0.000000
vn 0.000000 -1.000000 -0.000000
vn 0.000000 -1.000000 -0.000000
vn 1.000000 0.000000 -0.000000
vn 1.000000 0.000000 -0.000000
vn 1.000000 0.000000 -0.000000
vn 1.000000 0.000000 -0.000000
vn 1.000000 0.000000 -0.000000
vn 1.000000 0.000000 -0.000000
vn 0.000000 1.000000 0.000000
vn 0.000000 1.000000 0.000000
vn 0.000000 1.000000 0.000000
vn 0.000000 1.000000 0.000000
vn 0.000000 1.000000 0.000000
vn 0.000000 1.000000 0.000000
vn -1.000000 0.000000 0.000000
vn -1.000000 0.000000 0.000000
vn -1.000000 0.000000 0.000000
vn -1.000000 0.000000 0.000000
vn -1.000000 0.000000 0.000000
vn -1.000000 0.000000 0.000000
vn 0.000000 -1.000000 0.000000
vn 0.000000 -1.000000 0.000000
vn 0.000000 -1.000000 0.000000
vn 0.000000 -1.000000 0.000000
vn 0.000000 -1.000000 0.000000
vn 0.000000 -1.000000 0.000000
vn 0.000000 -1.000000 0.000000
vn 0.000000 -1.000000 0.000000
vn 0.000000 -1.000000 0.000000
vn 0.000000 -1.000000 0.000000
vn 0.000000 -1.000000 0.000000
vn 0.000000 -1.000000 0.000000
vn 0.000000 -1.000000 0.000000
vn 0.000000 -1.000000 0.000000
vn 0.000000 -1.000000 0.000000
vn 0.000000 -1.000000 0.000000
vn 0.000000 -1.000000 0.000000
vn 0.000000 -1.000000 0.000000
vn 0.000000 -1.000000 0.000000
vn 0.000000 -1.000000 0.000000
vn 0.000000 -1.000000 0.000000
vn 0.000000 -1.000000 0.000000
vn 0.000000 -1.000000 0.000000
vn 0.000000 -1.000000 0.000000
vn 0.000000 -1.000000 0.000000
vn 0.000000 -1.000000 0.000000
vn 0.000000 -1.000000 0.000000
vn 0.000000 -1.000000 0.000000
vn 0.000000 -1.000000 0.000000
vn 0.000000 -1.000000 0.000000
vn 0.000000 -1.000000 0.000000
vn 0.000000 -1.000000 0.000000
vn 0.000000 -1.000000 0.000000
vn 0.000000 -1.000000 0.000000
vn 0.000000 -1.000000 0.000000
vn 0.000000 -1.000000 0.000000
vn 0.000000 -1.000000 0.000000
vn 0.000000 -1.000000 0.000000
vn 0.000000 -1.000000 0.000000
vn 0.000000 -1.000000 0.000000
vn 0.000000 -1.000000 0.000000
vn 0.000000 -1.000000 0.000000
vn 0.000000 -1.000000 0.000000
vn 0.000000 -1.000000 0.000000
vn 0.000000 -1.000000 0.000000
vn 0.000000 -1.000000 0.000000
vn 0.000000 -1.000000 0.000000
vn 0.000000 -1.000000 0.000000
vn 0.000000 -1.000000 0.000000
vn 0.000000 -1.000000 0.000000
vn 0.000000 -1.000000 0.000000
vn 0.000000 -1.000000 0.000000
vn 0.000000 -1.000000 0.000000
vn 0.000000 -1.000000 0.000000
vn 0.000000 -1.000000 0.000000
vn 0.000000 -1.000000 0.000000
vn 0.000000 -1.000000 0.000000
vn 0.000000 -1.000000 0.000000
vn 0.000000 -1.000000 0.000000
vn 0.000000 -1.000000 0.000000
vn 0.000000 -1.000000 0.000000
vn 0.000000 -1.000000 0.000000
vn 0.000000 -1.000000 0.000000
vn 0.000000 -1.000000 0.000000
vn 0.000000 -1.000000 0.000000
vn 0.000000 -1.000000 0.000000
vn 0.000000 -1.000000 0.000000
vn 0.000000 -1.000000 0.000000
vn 0.000000 -1.000000 0.000000
vn 0.000000 -1.000000 0.000000
vn 0.000000 -1.000000 0.000000
vn 0.000000 -1.000000 0.000000
vn 0.000000 -1.000000 0.000000
vn 0.000000 -1.000000 0.000000
vn 0.000000 -1.000000 0.000000
vn 0.000000 -1.000000 0.000000
vn 0.000000 -1.000000 0.000000
vn 0.000000 -1.000000 0.000000
vn 0.000000 -1.000000 0.000000
vn 0.000000 -1.000000 0.000000
vn 0.000000 -1.000000 0.000000
vn 0.000000 -1.000000 0.000000
vn 0.000000 -1.000000 0.000000
vn 0.000000 -1.000000 0.000000
vn 0.000000 -1.000000 0.000000
vn 0.000000 -1.000000 0.000000
vn 0.000000 -1.000000 0.000000
vn 0.000000 -1.000000 0.000000
vn 0.000000 -1.000000 0.000000
vn 0.000000 -1.000000 0.000000
vn 0.000000 -1.000000 0.000000
vn 0.000000 -1.000000 0.000000
vn 0.000000 -1.000000 0.000000
vn 0.000000 -1.000000 0.000000
vn 0.000000 -1.000000 0.000000
vn 0.000000 -1.000000 0.000000
vn 0.000000 -1.000000 0.000000
vn 0.000000 -1.000000 0.000000
vn 0.000000 -1.000000 0.000000
vn 0.000000 -1.000000 0.000000
vn 0.000000 -1.000000 0.000000
vn 0.000000 -1.000000 0.000000
vn 0.000000 -1.000000 0.000000
vn 0.000000 -1.000000 0.000000
vn 0.000000 -1.000000 0.000000
vn 0.000000 -1.000000 0.000000
vn 0.000000 -1.000000 0.000000
vn 0.000000 -1.000000 0.000000
vn 0.000000 -1.000000 0.000000
vn 0.000000 -1.000000 0.000000
vn 0.000000 -1.000000 0.000000
vn 0.000000 -1.000000 0.000000
vn 0.000000 -1.000000 0.000000
vn 0.000000 -1.000000 0.000000
vn 0.000000 -1.000000 0.000000
vn 0.000000 -1.000000 0.000000
vn 0.000000 -1.000000 0.000000
vn 0.000000 -1.000000 0.000000
vn 0.000000 -1.000000 0.000000
vn 0.000000 -1.000000 0.000000
vn 0.000000 -1.000000 0.000000
vn 0.000000 -1.000000 0.000000
vn 0.000000 -1.000000 0.000000
vn 0.000000 -1.000000 0.000000
vn 0.000000 -1.000000 0.000000
vn 0.000000 -1.000000 0.000000
vn 0.000000 -1.000000 0.000000
vn 0.000000 -1.000000 0.000000
vn 0.000000 -1.000000 0.000000
vn 0.000000 -1.000000 0.000000
vn 0.000000 -1.000000 0.000000
vn 0.000000 -1.000000 0.000000
vn 0.000000 -1.000000 0.000000
vn 0.000000 -1.000000 0.000000
vn 0.000000 -1.000000 0.000000
vn 0.000000 -1.000000 0.000000
vn 0.000000 -1.000000 0.000000
vn 0.000000 -1.000000 0.000000
vn 0.000000 -1.000000 0.000000
vn 0.000000 -1.000000 0.000000
vn 0.000000 -1.000000 0.000000
vn 0.000000 -1.000000 0.000000
vn 0.000000 -1.000000 0.000000
vn 0.000000 -1.000000 0.000000
vn 0.000000 1.000000 0.000000
vn 0.000000 1.000000 0.000000
vn 0.000000 1.000000 0.000000
vn 0.000000 1.000000 0.000000
vn 0.000000 1.000000 0.000000
vn 0.000000 1.000000 0.000000
vn 0.000000 1.000000 0.000000
vn 0.000000 1.000000 0.000000
vn 0.000000 1.000000 0.000000
vn 0.000000 1.000000 0.000000
vn 0.000000 1.000000 0.000000
vn 0.000000 1.000000 0.000000
vn 0.000000 1.000000 0.000000
vn 0.000000 1.000000 0.000000
vn 0.000000 1.000000 0.000000
vn 0.000000 1.000000 0.000000
vn 0.000000 1.000000 0.000000
vn 0.000000 1.000000 0.000000
vn 0.000000 1.000000 0.000000
vn 0.000000 1.000000 0.000000
vn 0.000000 1.000000 0.000000
vn 0.000000 1.000000 0.000000
vn 0.000000 1.000000 0.000000
vn 0.000000 1.000000 0.000000
vn 0.000000 1.000000 0.000000
vn 0.000000 1.000000 0.000000
vn 0.000000 1.000000 0.000000
vn 0.000000 1.000000 0.000000
vn 0.000000 1.000000 0.000000
vn 0.000000 1.000000 0.000000
vn 0.000000 1.000000 0.000000
vn 0.000000 1.000000 0.000000
vn 0.000000 1.000000 0.000000
vn 0.000000 1.000000 0.000000
vn 0.000000 1.000000 0.000000
vn 0.000000 1.000000 0.000000
vn 0.000000 1.000000 0.000000
vn 0.000000 1.000000 0.000000
vn 0.000000 1.000000 0.000000
vn 0.000000 1.000000 0.000000
vn 0.000000 1.000000 0.000000
vn 0.000000 1.000000 0.000000
vn 0.000000 1.000000 0.000000
vn 0.000000 1.000000 0.000000
vn 0.000000 1.000000 0.000000
vn 0.000000 1.000000 0.000000
vn 0.000000 1.000000 0.000000
vn 0.000000 1.000000 0.000000
vn 0.000000 1.000000 0.000000
vn 0.000000 1.000000 0.000000
vn 0.000000 1.000000 0.000000
vn 0.000000 1.000000 0.000000
vn 0.000000 1.000000 0.000000
vn 0.000000 1.000000 0.000000
vn 0.000000 1.000000 0.000000
vn 0.000000 1.000000 0.000000
vn 0.000000 1.000000 0.000000
vn 0.000000 1.000000 0.000000
vn 0.000000 1.000000 0.000000
vn 0.000000 1.000000 0.000000
vn 0.000000 1.000000 0.000000
vn 0.000000 1.000000 0.000000
vn 0.000000 1.000000 0.000000
vn 0.000000 1.000000 0.000000
vn 0.000000 1.000000 0.000000
vn 0.000000 1.000000 0.000000
vn 0.000000 1.000000 0.000000
vn 0.000000 1.000000 0.000000
vn 0.000000 1.000000 0.000000
vn 0.000000 1.000000 0.000000
vn 0.000000 1.000000 0.000000
vn 0.000000 1.000000 0.000000
vn 0.000000 1.000000 0.000000
vn 0.000000 1.000000 0.000000
vn 0.000000 1.000000 0.000000
vn 0.000000 1.000000 0.000000
vn 0.000000 1.000000 0.000000
vn 0.000000 1.000000 0.000000
vn 0.000000 1.000000 0.000000
vn 0.000000 1.000000 0.000000
vn 0.000000 1.000000 0.000000
vn 0.000000 1.000000 0.000000
vn 0.000000 1.000000 0.000000
vn 0.000000 1.000000 0.000000
vn 0.000000 1.000000 0.000000
vn 0.000000 1.000000 0.000000
vn 0.000000 1.000000 0.000000
vn 0.000000 1.000000 0.000000
vn 0.000000 1.000000 0.000000
vn 0.000000 1.000000 0.000000
vn 0.000000 1.000000 0.000000
vn 0.000000 1.000000 0.000000
vn 0.000000 1.000000 0.000000
vn 0.000000 1.000000 0.000000
vn 0.000000 1.000000 0.000000
vn 0.000000 1.000000 0.000000
vn 0.000000 1.000000 0.000000
vn 0.000000 1.000000 0.000000
vn 0.000000 1.000000 0.000000
vn 0.000000 1.000000 0.000000
vn 0.000000 1.000000 0.000000
vn 0.000000 1.000000 0.000000
vn 0.000000 1.000000 0.000000
vn 0.000000 1.000000 0.000000
vn 0.000000 1.000000 0.000000
vn 0.000000 1.000000 0.000000
vn 0.000000 1.000000 0.000000
vn 0.000000 1.000000 0.000000
vn 0.000000 1.000000 0.000000
vn 0.000000 1.000000 0.000000
vn 0.000000 1.000000 0.000000
vn 0.000000 1.000000 0.000000
vn 0.000000 1.000000 0.000000
vn 0.000000 1.000000 0.000000
vn 0.000000 1.000000 0.000000
vn 0.000000 1.000000 0.000000
vn 0.000000 1.000000 0.000000
vn 0.000000 1.000000 0.000000
vn 0.000000 1.000000 0.000000
vn 0.000000 1.000000 0.000000
vn 0.000000 1.000000 0.000000
vn 0.000000 1.000000 0.000000
vn 0.000000 1.000000 0.000000
vn 0.000000 1.000000 0.000000
vn 0.000000 1.000000 0.000000
vn 0.000000 1.000000 0.000000
vn 0.000000 1.000000 0.000000
vn 0.000000 1.000000 0.000000
vn 0.000000 1.000000 0.000000
vn 0.000000 1.000000 0.000000
vn 0.000000 1.000000 0.000000
vn 0.000000 1.000000 0.000000
vn 0.000000 1.000000 0.000000
vn 0.000000 1.000000 0.000000
vn 0.000000 1.000000 0.000000
vn 0.000000 1.000000 0.000000
vn 0.000000 1.000000 0.000000
vn 0.000000 1.000000 0.000000
vn 0.000000 1.000000 0.000000
vn 0.000000 1.000000 0.000000
vn 0.000000 1.000000 0.000000
vn 0.000000 1.000000 0.000000
vn 0.000000 1.000000 0.000000
vn 0.000000 1.000000 0.000000
# 318 vertex normals

vt 0.125700 0.974100 0.000000
vt 0.125700 0.999500 0.000000
vt 0.064300 0.999500 0.000000
vt 0.064300 0.974100 0.000000
vt 0.061700 0.999800 0.000000
vt 0.000000 0.999800 0.000000
vt 0.000000 0.001400 0.000000
vt 0.061700 0.001400 0.000000
vt 0.061700 0.001100 0.000000
vt 0.437300 0.996100 0.250000
vt 0.375700 0.984300 0.250000
vt 0.315900 0.964900 0.250000
vt 0.562700 0.996100 0.250000
vt 0.259100 0.938200 0.250000
vt 0.206100 0.904500 0.250000
vt 0.114700 0.818700 0.250000
vt 0.157700 0.864500 0.250000
vt 0.077800 0.767900 0.250000
vt 0.047600 0.712900 0.250000
vt 0.008900 0.593700 0.250000
vt 0.024500 0.654500 0.250000
vt 0.157700 0.135500 0.250000
vt 0.001000 0.531400 0.250000
vt 0.001000 0.468600 0.250000
vt 0.024500 0.345500 0.250000
vt 0.008900 0.406300 0.250000
vt 0.047600 0.287100 0.250000
vt 0.077800 0.232100 0.250000
vt 0.114700 0.181300 0.250000
vt 0.206100 0.095500 0.250000
vt 0.259100 0.061800 0.250000
vt 0.375700 0.015700 0.250000
vt 0.315900 0.035100 0.250000
vt 0.437300 0.003900 0.250000
vt 0.500000 0.000000 0.250000
vt 0.624300 0.015700 0.250000
vt 0.562700 0.003900 0.250000
vt 0.975500 0.345500 0.250000
vt 0.684100 0.035100 0.250000
vt 0.740900 0.061800 0.250000
vt 0.842300 0.135500 0.250000
vt 0.793900 0.095500 0.250000
vt 0.885300 0.181300 0.250000
vt 0.922200 0.232100 0.250000
vt 0.952400 0.287100 0.250000
vt 0.885300 0.818700 0.250000
vt 0.991100 0.406300 0.250000
vt 0.999000 0.468600 0.250000
vt 0.991100 0.593700 0.250000
vt 0.999000 0.531400 0.250000
vt 0.975500 0.654500 0.250000
vt 0.952400 0.712900 0.250000
vt 0.922200 0.767900 0.250000
vt 0.842300 0.864500 0.250000
vt 0.793900 0.904500 0.250000
vt 0.684100 0.964900 0.250000
vt 0.740900 0.938200 0.250000
vt 0.624300 0.984300 0.250000
vt 0.500000 1.000000 0.250000
vt 0.624300 0.984300 -0.250000
vt 0.684100 0.964900 -0.250000
vt 0.740900 0.938200 -0.250000
vt 0.500000 1.000000 -0.250000
vt 0.793900 0.904500 -0.250000
vt 0.842300 0.864500 -0.250000
vt 0.922200 0.767900 -0.250000
vt 0.885300 0.818700 -0.250000
vt 0.952400 0.712900 -0.250000
vt 0.975500 0.654500 -0.250000
vt 0.999000 0.531400 -0.250000
vt 0.991100 0.593700 -0.250000
vt 0.793900 0.095500 -0.250000
vt 0.999000 0.468600 -0.250000
vt 0.991100 0.406300 -0.250000
vt 0.952400 0.287100 -0.250000
vt 0.975500 0.345500 -0.250000
vt 0.922200 0.232100 -0.250000
vt 0.885300 0.181300 -0.250000
vt 0.842300 0.135500 -0.250000
vt 0.740900 0.061800 -0.250000
vt 0.684100 0.035100 -0.250000
vt 0.562700 0.003900 -0.250000
vt 0.624300 0.015700 -0.250000
vt 0.500000 0.000000 -0.250000
vt 0.437300 0.003900 -0.250000
vt 0.315900 0.035100 -0.250000
vt 0.375700 0.015700 -0.250000
vt 0.008900 0.406300 -0.250000
vt 0.259100 0.061800 -0.250000
vt 0.206100 0.095500 -0.250000
vt 0.114700 0.181300 -0.250000
vt 0.157700 0.135500 -0.250000
vt 0.077800 0.232100 -0.250000
vt 0.047600 0.287100 -0.250000
vt 0.024500 0.345500 -0.250000
vt 0.157700 0.864500 -0.250000
vt 0.001000 0.468600 -0.250000
vt 0.001000 0.531400 -0.250000
vt 0.024500 0.654500 -0.250000
vt 0.008900 0.593700 -0.250000
vt 0.047600 0.712900 -0.250000
vt 0.077800 0.767900 -0.250000
vt 0.114700 0.818700 -0.250000
vt 0.206100 0.904500 -0.250000
vt 0.259100 0.938200 -0.250000
vt 0.375700 0.984300 -0.250000
vt 0.315900 0.964900 -0.250000
vt 0.437300 0.996100 -0.250000
vt 0.562700 0.996100 -0.250000
# 109 texture coords

g Sign_KMH_90
usemtl Sign_Pole
s 4
f 3/3/1 4/4/2 1/1/3 
f 1/1/4 2/2/5 3/3/6 
s 8
f 2/7/7 1/8/8 5/5/9 
f 5/5/10 6/6/11 2/7/12 
s 16
f 3/5/13 2/6/14 6/7/15 
f 6/7/16 7/8/17 3/5/18 
s 32
f 4/5/19 3/6/20 7/7/21 
f 7/7/22 8/8/23 4/5/24 
s 64
f 1/5/25 4/6/26 8/7/27 
f 8/7/28 5/9/29 1/5/30 
usemtl 90KMH
s 1
f 11/12/31 12/13/32 9/10/33 
f 9/10/34 10/11/35 11/12/36 
f 14/15/37 15/16/38 11/12/39 
f 11/12/40 13/14/41 14/15/42 
f 14/15/43 16/17/44 15/16/45 
f 18/19/46 19/20/47 15/16/48 
f 15/16/49 17/18/50 18/19/51 
f 18/19/52 20/21/53 19/20/54 
f 19/20/55 21/22/56 11/12/57 
f 11/12/58 15/16/59 19/20/60 
f 23/24/61 24/25/62 19/20/63 
f 19/20/64 22/23/65 23/24/66 
f 23/24/67 25/26/68 24/25/69 
f 27/28/70 21/22/71 24/25/72 
f 24/25/73 26/27/74 27/28/75 
f 27/28/76 28/29/77 21/22/78 
f 19/20/79 24/25/80 21/22/81 
f 30/31/82 31/32/83 21/22/84 
f 21/22/85 29/30/86 30/31/87 
f 30/31/88 32/33/89 31/32/90 
f 34/35/91 35/36/92 31/32/93 
f 31/32/94 33/34/95 34/35/96 
f 34/35/97 36/37/98 35/36/99 
f 35/36/100 37/38/101 21/22/102 
f 21/22/103 31/32/104 35/36/105 
f 39/40/106 40/41/107 35/36/108 
f 35/36/109 38/39/110 39/40/111 
f 39/40/112 41/42/113 40/41/114 
f 43/44/115 37/38/116 40/41/117 
f 40/41/118 42/43/119 43/44/120 
f 43/44/121 44/45/122 37/38/123 
f 35/36/124 40/41/125 37/38/126 
f 37/38/127 45/46/128 11/12/129 
f 11/12/130 21/22/131 37/38/132 
f 47/48/133 48/49/134 37/38/135 
f 37/38/136 46/47/137 47/48/138 
f 47/48/139 49/50/140 48/49/141 
f 51/52/142 45/46/143 48/49/144 
f 48/49/145 50/51/146 51/52/147 
f 51/52/148 52/53/149 45/46/150 
f 37/38/151 48/49/152 45/46/153 
f 54/55/154 55/56/155 45/46/156 
f 45/46/157 53/54/158 54/55/159 
f 54/55/160 56/57/161 55/56/162 
f 55/56/163 12/13/164 11/12/165 
f 11/12/166 45/46/167 55/56/168 
f 55/56/169 57/58/170 12/13/171 
f 58/59/172 9/10/173 12/13/174 
usemtl Sign_Pole
f 61/62/175 62/63/176 59/60/177 
f 59/60/178 60/61/179 61/62/180 
f 64/65/181 65/66/182 61/62/183 
f 61/62/184 63/64/185 64/65/186 
f 64/65/187 66/67/188 65/66/189 
f 68/69/190 69/70/191 65/66/192 
f 65/66/193 67/68/194 68/69/195 
f 68/69/196 70/71/197 69/70/198 
f 69/70/199 71/72/200 61/62/201 
f 61/62/202 65/66/203 69/70/204 
f 73/74/205 74/75/206 69/70/207 
f 69/70/208 72/73/209 73/74/210 
f 73/74/211 75/76/212 74/75/213 
f 77/78/214 71/72/215 74/75/216 
f 74/75/217 76/77/218 77/78/219 
f 77/78/220 78/79/221 71/72/222 
f 69/70/223 74/75/224 71/72/225 
f 80/81/226 81/82/227 71/72/228 
f 71/72/229 79/80/230 80/81/231 
f 80/81/232 82/83/233 81/82/234 
f 84/85/235 85/86/236 81/82/237 
f 81/82/238 83/84/239 84/85/240 
f 84/85/241 86/87/242 85/86/243 
f 85/86/244 87/88/245 71/72/246 
f 71/72/247 81/82/248 85/86/249 
f 89/90/250 90/91/251 85/86/252 
f 85/86/253 88/89/254 89/90/255 
f 89/90/256 91/92/257 90/91/258 
f 93/94/259 87/88/260 90/91/261 
f 90/91/262 92/93/263 93/94/264 
f 93/94/265 94/95/266 87/88/267 
f 85/86/268 90/91/269 87/88/270 
f 87/88/271 95/96/272 61/62/273 
f 61/62/274 71/72/275 87/88/276 
f 97/98/277 98/99/278 87/88/279 
f 87/88/280 96/97/281 97/98/282 
f 97/98/283 99/100/284 98/99/285 
f 101/102/286 95/96/287 98/99/288 
f 98/99/289 100/101/290 101/102/291 
f 101/102/292 102/103/293 95/96/294 
f 87/88/295 98/99/296 95/96/297 
f 104/105/298 105/106/299 95/96/300 
f 95/96/301 103/104/302 104/105/303 
f 104/105/304 106/107/305 105/106/306 
f 105/106/307 62/63/308 61/62/309 
f 61/62/310 95/96/311 105/106/312 
f 105/106/313 107/108/314 62/63/315 
f 108/109/316 59/60/317 62/63/318 
# 106 faces

