# 3ds Max Wavefront OBJ Exporter v0.97b - (c)2007 guruware
# File Created: 17.05.2018 10:44:00

mtllib railroad_crossing.mtl

#
# object Sign_NoParkingSquare_36_36
#

v  -0.0261 -0.0297 2.7886
v  0.0374 -0.0297 2.7886
v  0.0374 0.0338 2.7886
v  -0.0261 0.0338 2.7886
v  -0.0261 -0.0297 -2.3815
v  0.0374 -0.0297 -2.3815
v  0.0374 0.0338 -2.3815
v  -0.0261 0.0338 -2.3815
# 8 vertices

vn 0.0000 0.0000 1.0000
vn 0.0000 0.0000 1.0000
vn 0.0000 0.0000 1.0000
vn 0.0000 0.0000 1.0000
vn 0.0000 0.0000 1.0000
vn 0.0000 0.0000 1.0000
vn 0.0000 -1.0000 -0.0000
vn 0.0000 -1.0000 -0.0000
vn 0.0000 -1.0000 -0.0000
vn 0.0000 -1.0000 -0.0000
vn 0.0000 -1.0000 -0.0000
vn 0.0000 -1.0000 -0.0000
vn 1.0000 0.0000 -0.0000
vn 1.0000 0.0000 -0.0000
vn 1.0000 0.0000 -0.0000
vn 1.0000 0.0000 -0.0000
vn 1.0000 0.0000 -0.0000
vn 1.0000 0.0000 -0.0000
vn 0.0000 1.0000 0.0000
vn 0.0000 1.0000 0.0000
vn 0.0000 1.0000 0.0000
vn 0.0000 1.0000 0.0000
vn 0.0000 1.0000 0.0000
vn 0.0000 1.0000 0.0000
vn -1.0000 0.0000 0.0000
vn -1.0000 0.0000 0.0000
vn -1.0000 0.0000 0.0000
vn -1.0000 0.0000 0.0000
vn -1.0000 0.0000 0.0000
vn -1.0000 0.0000 0.0000
# 30 vertex normals

vt 0.1257 0.9741 0.0000
vt 0.1257 0.9995 0.0000
vt 0.0643 0.9995 0.0000
vt 0.0643 0.9741 0.0000
vt 0.0617 0.9998 0.0000
vt 0.0000 0.9998 0.0000
vt 0.0000 0.0014 0.0000
vt 0.0617 0.0014 0.0000
vt 0.0617 0.0011 0.0000
# 9 texture coords

o Sign_NoParkingSquare_36_36
g Sign_NoParkingSquare_36_36
usemtl Sign_Pole
s 4
f 3/3/1 4/4/2 1/1/3 
f 1/1/4 2/2/5 3/3/6 
s 8
f 2/7/7 1/8/8 5/5/9 
f 5/5/10 6/6/11 2/7/12 
s 16
f 3/5/13 2/6/14 6/7/15 
f 6/7/16 7/8/17 3/5/18 
s 32
f 4/5/19 3/6/20 7/7/21 
f 7/7/22 8/8/23 4/5/24 
s 64
f 1/5/25 4/6/26 8/7/27 
f 8/7/28 5/9/29 1/5/30 
# 10 faces

#
# object Cylinder001
#

v  0.4598 -0.0425 2.4314
v  0.4411 -0.0425 2.5609
v  0.3868 -0.0425 2.6799
v  0.3011 -0.0425 2.7788
v  0.1910 -0.0425 2.8496
v  0.0654 -0.0425 2.8864
v  -0.0654 -0.0425 2.8864
v  -0.1910 -0.0425 2.8496
v  -0.3011 -0.0425 2.7788
v  -0.3868 -0.0425 2.6799
v  -0.4411 -0.0425 2.5609
v  -0.4598 -0.0425 2.4314
v  -0.4411 -0.0425 2.3018
v  -0.3868 -0.0425 2.1828
v  -0.3011 -0.0425 2.0839
v  -0.1910 -0.0425 2.0131
v  -0.0654 -0.0425 1.9763
v  0.0654 -0.0425 1.9763
v  0.1910 -0.0425 2.0131
v  0.3011 -0.0425 2.0839
v  0.3868 -0.0425 2.1828
v  0.4411 -0.0425 2.3018
v  0.4598 -0.0532 2.4314
v  0.4411 -0.0532 2.5609
v  0.3868 -0.0532 2.6799
v  0.3011 -0.0532 2.7788
v  0.1910 -0.0532 2.8496
v  0.0654 -0.0532 2.8864
v  -0.0654 -0.0532 2.8864
v  -0.1910 -0.0532 2.8496
v  -0.3011 -0.0532 2.7788
v  -0.3868 -0.0532 2.6799
v  -0.4411 -0.0532 2.5609
v  -0.4598 -0.0532 2.4314
v  -0.4411 -0.0532 2.3018
v  -0.3868 -0.0532 2.1828
v  -0.3011 -0.0532 2.0839
v  -0.1910 -0.0532 2.0131
v  -0.0654 -0.0532 1.9763
v  0.0654 -0.0532 1.9763
v  0.1910 -0.0532 2.0131
v  0.3011 -0.0532 2.0839
v  0.3868 -0.0532 2.1828
v  0.4411 -0.0532 2.3018
# 44 vertices

vn 0.0000 1.0000 0.0000
vn 0.0000 1.0000 0.0000
vn 0.0000 1.0000 0.0000
vn 0.0000 1.0000 0.0000
vn 0.0000 1.0000 0.0000
vn 0.0000 1.0000 0.0000
vn 0.0000 1.0000 0.0000
vn 0.0000 1.0000 0.0000
vn 0.0000 1.0000 0.0000
vn 0.0000 1.0000 0.0000
vn 0.0000 1.0000 0.0000
vn 0.0000 1.0000 0.0000
vn 0.0000 1.0000 0.0000
vn 0.0000 1.0000 0.0000
vn 0.0000 1.0000 0.0000
vn 0.0000 1.0000 0.0000
vn 0.0000 1.0000 0.0000
vn 0.0000 1.0000 0.0000
vn 0.0000 1.0000 0.0000
vn 0.0000 1.0000 0.0000
vn 0.0000 1.0000 0.0000
vn 0.0000 1.0000 0.0000
vn 0.0000 1.0000 0.0000
vn 0.0000 1.0000 0.0000
vn 0.0000 1.0000 0.0000
vn 0.0000 1.0000 0.0000
vn 0.0000 1.0000 0.0000
vn 0.0000 1.0000 0.0000
vn 0.0000 1.0000 0.0000
vn 0.0000 1.0000 0.0000
vn 0.0000 1.0000 0.0000
vn 0.0000 1.0000 0.0000
vn 0.0000 1.0000 0.0000
vn 0.0000 1.0000 0.0000
vn 0.0000 1.0000 0.0000
vn 0.0000 1.0000 0.0000
vn 0.0000 1.0000 0.0000
vn 0.0000 1.0000 0.0000
vn 0.0000 1.0000 0.0000
vn 0.0000 1.0000 0.0000
vn 0.0000 1.0000 0.0000
vn 0.0000 1.0000 0.0000
vn 0.0000 1.0000 0.0000
vn 0.0000 1.0000 0.0000
vn 0.0000 1.0000 0.0000
vn 0.0000 1.0000 0.0000
vn 0.0000 1.0000 0.0000
vn 0.0000 1.0000 0.0000
vn 0.0000 1.0000 0.0000
vn 0.0000 1.0000 0.0000
vn 0.0000 1.0000 0.0000
vn 0.0000 1.0000 0.0000
vn 0.0000 1.0000 0.0000
vn 0.0000 1.0000 0.0000
vn 0.0000 1.0000 0.0000
vn 0.0000 1.0000 0.0000
vn 0.0000 1.0000 0.0000
vn 0.0000 1.0000 0.0000
vn 0.0000 1.0000 0.0000
vn 0.0000 1.0000 0.0000
vn 0.0000 -1.0000 -0.0000
vn 0.0000 -1.0000 -0.0000
vn 0.0000 -1.0000 -0.0000
vn 0.0000 -1.0000 -0.0000
vn 0.0000 -1.0000 -0.0000
vn 0.0000 -1.0000 -0.0000
vn 0.0000 -1.0000 -0.0000
vn 0.0000 -1.0000 -0.0000
vn 0.0000 -1.0000 -0.0000
vn 0.0000 -1.0000 -0.0000
vn 0.0000 -1.0000 -0.0000
vn 0.0000 -1.0000 -0.0000
vn 0.0000 -1.0000 -0.0000
vn 0.0000 -1.0000 -0.0000
vn 0.0000 -1.0000 -0.0000
vn 0.0000 -1.0000 -0.0000
vn 0.0000 -1.0000 -0.0000
vn 0.0000 -1.0000 -0.0000
vn 0.0000 -1.0000 -0.0000
vn 0.0000 -1.0000 -0.0000
vn 0.0000 -1.0000 -0.0000
vn 0.0000 -1.0000 -0.0000
vn 0.0000 -1.0000 -0.0000
vn 0.0000 -1.0000 -0.0000
vn 0.0000 -1.0000 -0.0000
vn 0.0000 -1.0000 -0.0000
vn 0.0000 -1.0000 -0.0000
vn 0.0000 -1.0000 -0.0000
vn 0.0000 -1.0000 -0.0000
vn 0.0000 -1.0000 -0.0000
vn 0.0000 -1.0000 -0.0000
vn 0.0000 -1.0000 -0.0000
vn 0.0000 -1.0000 -0.0000
vn 0.0000 -1.0000 -0.0000
vn 0.0000 -1.0000 -0.0000
vn 0.0000 -1.0000 -0.0000
vn 0.0000 -1.0000 -0.0000
vn 0.0000 -1.0000 -0.0000
vn 0.0000 -1.0000 -0.0000
vn 0.0000 -1.0000 -0.0000
vn 0.0000 -1.0000 -0.0000
vn 0.0000 -1.0000 -0.0000
vn 0.0000 -1.0000 -0.0000
vn 0.0000 -1.0000 -0.0000
vn 0.0000 -1.0000 -0.0000
vn 0.0000 -1.0000 -0.0000
vn 0.0000 -1.0000 -0.0000
vn 0.0000 -1.0000 -0.0000
vn 0.0000 -1.0000 -0.0000
vn 0.0000 -1.0000 -0.0000
vn 0.0000 -1.0000 -0.0000
vn 0.0000 -1.0000 -0.0000
vn 0.0000 -1.0000 -0.0000
vn 0.0000 -1.0000 -0.0000
vn 0.0000 -1.0000 -0.0000
vn 0.0000 -1.0000 -0.0000
vn 0.0000 -1.0000 -0.0000
vn 0.0000 -1.0000 -0.0000
vn 0.0000 -1.0000 -0.0000
vn 0.0000 -1.0000 -0.0000
# 120 vertex normals

vt 0.9797 0.3577 0.0000
vt 0.9206 0.2269 0.0000
vt 0.8274 0.1182 0.0000
vt 0.7077 0.0405 0.0000
vt 0.5712 0.0000 0.0000
vt 0.4288 0.0000 0.0000
vt 0.2923 0.0405 0.0000
vt 0.1726 0.1182 0.0000
vt 0.0794 0.2269 0.0000
vt 0.0203 0.3577 0.0000
vt 0.0000 0.5000 0.0000
vt 0.0203 0.6423 0.0000
vt 0.0794 0.7731 0.0000
vt 0.1726 0.8818 0.0000
vt 0.2923 0.9595 0.0000
vt 0.4288 1.0000 0.0000
vt 0.5712 1.0000 0.0000
vt 0.7077 0.9595 0.0000
vt 0.8274 0.8818 0.0000
vt 0.9206 0.7731 0.0000
vt 0.9797 0.6423 0.0000
vt 1.0000 0.5000 0.0000
vt 0.9797 0.3577 1.0000
vt 1.0000 0.5000 1.0000
vt 0.9797 0.6423 1.0000
vt 0.9206 0.7731 1.0000
vt 0.8274 0.8818 1.0000
vt 0.7077 0.9595 1.0000
vt 0.5712 1.0000 1.0000
vt 0.4288 1.0000 1.0000
vt 0.2923 0.9595 1.0000
vt 0.1726 0.8818 1.0000
vt 0.0794 0.7731 1.0000
vt 0.0203 0.6423 1.0000
vt 0.0000 0.5000 1.0000
vt 0.0203 0.3577 1.0000
vt 0.0794 0.2269 1.0000
vt 0.1726 0.1182 1.0000
vt 0.2923 0.0405 1.0000
vt 0.4288 0.0000 1.0000
vt 0.5712 0.0000 1.0000
vt 0.7077 0.0405 1.0000
vt 0.8274 0.1182 1.0000
vt 0.9206 0.2269 1.0000
# 44 texture coords

o Cylinder001
g Cylinder001
usemtl Sign_Pole
s 1
f 29/11/31 28/12/32 27/13/33 
f 27/13/34 26/14/35 25/15/36 
f 25/15/37 24/16/38 23/17/39 
f 27/13/40 25/15/41 23/17/42 
f 23/17/43 22/18/44 21/19/45 
f 21/19/46 20/20/47 19/21/48 
f 23/17/49 21/19/50 19/21/51 
f 27/13/52 23/17/53 19/21/54 
f 19/21/55 18/22/56 17/23/57 
f 17/23/58 16/24/59 15/25/60 
f 19/21/61 17/23/62 15/25/63 
f 15/25/64 14/26/65 13/27/66 
f 13/27/67 12/28/68 11/29/69 
f 15/25/70 13/27/71 11/29/72 
f 19/21/73 15/25/74 11/29/75 
f 27/13/76 19/21/77 11/29/78 
f 11/29/79 10/30/80 9/31/81 
f 27/13/82 11/29/83 9/31/84 
f 29/11/85 27/13/86 9/31/87 
f 30/10/88 29/11/89 9/31/90 
usemtl NoParkingSquare
f 31/33/91 32/34/92 33/35/93 
f 33/35/94 34/36/95 35/37/96 
f 35/37/97 36/38/98 37/39/99 
f 33/35/100 35/37/101 37/39/102 
f 37/39/103 38/40/104 39/41/105 
f 39/41/106 40/42/107 41/43/108 
f 37/39/109 39/41/110 41/43/111 
f 33/35/112 37/39/113 41/43/114 
f 41/43/115 42/44/116 43/45/117 
f 43/45/118 44/46/119 45/47/120 
f 41/43/121 43/45/122 45/47/123 
f 45/47/124 46/48/125 47/49/126 
f 47/49/127 48/50/128 49/51/129 
f 45/47/130 47/49/131 49/51/132 
f 41/43/133 45/47/134 49/51/135 
f 33/35/136 41/43/137 49/51/138 
f 49/51/139 50/52/140 51/53/141 
f 33/35/142 49/51/143 51/53/144 
f 31/33/145 33/35/146 51/53/147 
f 52/32/148 31/33/149 51/53/150 
# 40 faces

