# 3ds Max Wavefront OBJ Exporter v0.97b - (c)2007 guruware
# File Created: 18.05.2018 09:27:45

mtllib Concrete_Barrier.mtl

#
# object Concrete_Barrier
#

v  -3.0384 -0.4068 0.0077
v  -3.0480 0.4036 0.0173
v  -3.0384 0.1614 1.0716
v  3.0384 -0.4068 0.0077
v  3.0384 0.4132 0.0077
v  3.0384 -0.1485 1.0777
v  3.0384 0.1548 1.0777
v  -3.0384 -0.4068 0.0669
v  3.0384 0.4132 0.0669
v  -3.0384 0.2224 0.2651
v  3.0384 -0.2160 0.2651
v  3.0480 -0.3972 0.0173
v  3.0480 0.4036 0.0173
v  3.0480 -0.1457 1.0681
v  3.0480 0.1520 1.0681
v  3.0480 0.4036 0.0730
v  3.0384 -0.4068 0.0669
v  3.0480 -0.2069 0.2590
v  3.0384 0.2224 0.2651
v  -3.0480 -0.3972 0.0173
v  -3.0384 0.4132 0.0077
v  -3.0480 -0.1457 1.0681
v  -3.0480 0.1520 1.0681
v  -3.0480 -0.3972 0.0730
v  -3.0480 0.4036 0.0730
v  -3.0480 0.2133 0.2590
v  -3.0384 -0.2208 0.2548
v  -3.0384 0.1548 1.0777
v  3.0384 -0.1550 1.0716
v  3.0384 0.1614 1.0716
v  -3.0384 -0.4024 0.0773
v  3.0384 0.4088 0.0773
v  -3.0384 0.2272 0.2548
v  3.0384 -0.2208 0.2548
v  3.0480 -0.3972 0.0730
v  3.0384 -0.4024 0.0773
v  3.0480 0.2133 0.2590
v  3.0384 0.2272 0.2548
v  -3.0384 -0.1550 1.0716
v  -3.0384 -0.1485 1.0777
v  -3.0384 0.4088 0.0773
v  -3.0384 0.4132 0.0669
v  -3.0384 -0.2160 0.2651
v  -3.0480 -0.2069 0.2590
# 44 vertices

vn -0.8616 -0.4515 0.2321
vn -0.8616 0.4515 0.2321
vn -0.9054 0.3002 -0.3002
vn -0.9054 0.3002 -0.3002
vn -0.9054 -0.3002 -0.3002
vn -0.8616 -0.4515 0.2321
vn 0.9054 0.3002 -0.3002
vn 0.8616 0.4515 0.2321
vn 0.8616 -0.4515 0.2321
vn 0.8616 -0.4515 0.2321
vn 0.9054 -0.3002 -0.3002
vn 0.9054 0.3002 -0.3002
vn -0.3914 -0.6507 -0.6507
vn -0.3914 0.6507 -0.6507
vn 0.3914 0.6507 -0.6507
vn 0.3914 0.6507 -0.6507
vn 0.3914 -0.6507 -0.6507
vn -0.3914 -0.6507 -0.6507
vn -0.3453 0.9244 0.1621
vn 0.3453 0.9244 0.1621
vn 0.3914 0.6507 -0.6507
vn 0.3914 0.6507 -0.6507
vn -0.3914 0.6507 -0.6507
vn -0.3453 0.9244 0.1621
vn -0.3619 0.3365 0.8694
vn -0.3619 -0.3365 0.8694
vn 0.3619 -0.3365 0.8694
vn 0.3619 -0.3365 0.8694
vn 0.3619 0.3365 0.8694
vn -0.3619 0.3365 0.8694
vn -0.4157 -0.8830 0.2180
vn 0.4157 -0.8830 0.2180
vn 0.3619 -0.8415 0.4011
vn 0.3619 -0.8415 0.4011
vn -0.3619 -0.8415 0.4011
vn -0.4157 -0.8830 0.2180
vn -0.9517 -0.2840 0.1165
vn -0.9517 0.2840 0.1165
vn -0.8616 0.4515 0.2321
vn -0.8616 0.4515 0.2321
vn -0.8616 -0.4515 0.2321
vn -0.9517 -0.2840 0.1165
vn 0.9517 0.2840 0.1165
vn 0.9517 -0.2840 0.1165
vn 0.8616 -0.4515 0.2321
vn 0.8616 -0.4515 0.2321
vn 0.8616 0.4515 0.2321
vn 0.9517 0.2840 0.1165
vn -0.3488 0.7413 0.5735
vn 0.3488 0.7413 0.5735
vn 0.2906 0.7896 0.5404
vn 0.2906 0.7896 0.5404
vn -0.2906 0.7896 0.5404
vn -0.3488 0.7413 0.5735
vn -0.3914 -0.6507 -0.6507
vn 0.3914 -0.6507 -0.6507
vn 0.3453 -0.9244 0.1621
vn 0.3453 -0.9244 0.1621
vn -0.3453 -0.9244 0.1621
vn -0.3914 -0.6507 -0.6507
vn -0.2906 -0.7896 0.5404
vn 0.2906 -0.7896 0.5404
vn 0.3488 -0.7413 0.5735
vn 0.3488 -0.7413 0.5735
vn -0.3488 -0.7413 0.5735
vn -0.2906 -0.7896 0.5404
vn -0.8929 -0.3061 0.3301
vn -0.8929 0.3061 0.3301
vn -0.9517 0.2840 0.1165
vn -0.9517 0.2840 0.1165
vn -0.9517 -0.2840 0.1165
vn -0.8929 -0.3061 0.3301
vn 0.8929 0.3061 0.3301
vn 0.8929 -0.3061 0.3301
vn 0.9517 -0.2840 0.1165
vn 0.9517 -0.2840 0.1165
vn 0.9517 0.2840 0.1165
vn 0.8929 0.3061 0.3301
vn -0.3619 0.8415 0.4011
vn 0.3619 0.8415 0.4011
vn 0.4157 0.8830 0.2180
vn 0.4157 0.8830 0.2180
vn -0.4157 0.8830 0.2180
vn -0.3619 0.8415 0.4011
vn 0.9054 -0.3002 -0.3002
vn 0.3914 -0.6507 -0.6507
vn 0.3914 0.6507 -0.6507
vn 0.3914 0.6507 -0.6507
vn 0.9054 0.3002 -0.3002
vn 0.9054 -0.3002 -0.3002
vn 0.3914 0.6507 -0.6507
vn 0.3453 0.9244 0.1621
vn 0.8616 0.4515 0.2321
vn 0.8616 0.4515 0.2321
vn 0.9054 0.3002 -0.3002
vn 0.3914 0.6507 -0.6507
vn 0.3619 0.3365 0.8694
vn 0.3619 -0.3365 0.8694
vn 0.8929 -0.3061 0.3301
vn 0.8929 -0.3061 0.3301
vn 0.8929 0.3061 0.3301
vn 0.3619 0.3365 0.8694
vn 0.3619 -0.8415 0.4011
vn 0.4157 -0.8830 0.2180
vn 0.9517 -0.2840 0.1165
vn 0.9517 -0.2840 0.1165
vn 0.8929 -0.3061 0.3301
vn 0.3619 -0.8415 0.4011
vn 0.2906 0.7896 0.5404
vn 0.3488 0.7413 0.5735
vn 0.9517 0.2840 0.1165
vn 0.9517 0.2840 0.1165
vn 0.8616 0.4515 0.2321
vn 0.2906 0.7896 0.5404
vn 0.8616 -0.4515 0.2321
vn 0.3453 -0.9244 0.1621
vn 0.3914 -0.6507 -0.6507
vn 0.3914 -0.6507 -0.6507
vn 0.9054 -0.3002 -0.3002
vn 0.8616 -0.4515 0.2321
vn 0.3488 -0.7413 0.5735
vn 0.2906 -0.7896 0.5404
vn 0.8616 -0.4515 0.2321
vn 0.8616 -0.4515 0.2321
vn 0.9517 -0.2840 0.1165
vn 0.3488 -0.7413 0.5735
vn 0.4157 0.8830 0.2180
vn 0.3619 0.8415 0.4011
vn 0.8929 0.3061 0.3301
vn 0.8929 0.3061 0.3301
vn 0.9517 0.2840 0.1165
vn 0.4157 0.8830 0.2180
vn -0.3914 -0.6507 -0.6507
vn -0.3453 -0.9244 0.1621
vn -0.8616 -0.4515 0.2321
vn -0.8616 -0.4515 0.2321
vn -0.9054 -0.3002 -0.3002
vn -0.3914 -0.6507 -0.6507
vn -0.3619 -0.3365 0.8694
vn -0.3619 0.3365 0.8694
vn -0.8929 0.3061 0.3301
vn -0.8929 0.3061 0.3301
vn -0.8929 -0.3061 0.3301
vn -0.3619 -0.3365 0.8694
vn -0.3619 0.8415 0.4011
vn -0.4157 0.8830 0.2180
vn -0.9517 0.2840 0.1165
vn -0.9517 0.2840 0.1165
vn -0.8929 0.3061 0.3301
vn -0.3619 0.8415 0.4011
vn -0.9054 0.3002 -0.3002
vn -0.3914 0.6507 -0.6507
vn -0.3914 -0.6507 -0.6507
vn -0.3914 -0.6507 -0.6507
vn -0.9054 -0.3002 -0.3002
vn -0.9054 0.3002 -0.3002
vn -0.2906 -0.7896 0.5404
vn -0.3488 -0.7413 0.5735
vn -0.9517 -0.2840 0.1165
vn -0.9517 -0.2840 0.1165
vn -0.8616 -0.4515 0.2321
vn -0.2906 -0.7896 0.5404
vn -0.8616 0.4515 0.2321
vn -0.3453 0.9244 0.1621
vn -0.3914 0.6507 -0.6507
vn -0.3914 0.6507 -0.6507
vn -0.9054 0.3002 -0.3002
vn -0.8616 0.4515 0.2321
vn -0.3488 0.7413 0.5735
vn -0.2906 0.7896 0.5404
vn -0.8616 0.4515 0.2321
vn -0.8616 0.4515 0.2321
vn -0.9517 0.2840 0.1165
vn -0.3488 0.7413 0.5735
vn -0.4157 -0.8830 0.2180
vn -0.3619 -0.8415 0.4011
vn -0.8929 -0.3061 0.3301
vn -0.8929 -0.3061 0.3301
vn -0.9517 -0.2840 0.1165
vn -0.4157 -0.8830 0.2180
vn -0.3619 0.8415 0.4011
vn -0.8929 0.3061 0.3301
vn -0.3619 0.3365 0.8694
vn 0.3619 -0.3365 0.8694
vn 0.3619 -0.8415 0.4011
vn 0.8929 -0.3061 0.3301
vn 0.3619 0.3365 0.8694
vn 0.8929 0.3061 0.3301
vn 0.3619 0.8415 0.4011
vn -0.3453 -0.9244 0.1621
vn -0.2906 -0.7896 0.5404
vn -0.8616 -0.4515 0.2321
vn 0.3453 0.9244 0.1621
vn 0.2906 0.7896 0.5404
vn 0.8616 0.4515 0.2321
vn -0.4157 0.8830 0.2180
vn -0.3488 0.7413 0.5735
vn -0.9517 0.2840 0.1165
vn 0.4157 -0.8830 0.2180
vn 0.3488 -0.7413 0.5735
vn 0.9517 -0.2840 0.1165
vn 0.3453 -0.9244 0.1621
vn 0.8616 -0.4515 0.2321
vn 0.2906 -0.7896 0.5404
vn 0.4157 0.8830 0.2180
vn 0.9517 0.2840 0.1165
vn 0.3488 0.7413 0.5735
vn -0.8929 -0.3061 0.3301
vn -0.3619 -0.8415 0.4011
vn -0.3619 -0.3365 0.8694
vn -0.8616 0.4515 0.2321
vn -0.2906 0.7896 0.5404
vn -0.3453 0.9244 0.1621
vn -0.3488 -0.7413 0.5735
vn -0.4157 -0.8830 0.2180
vn -0.9517 -0.2840 0.1165
vn -0.3619 0.8415 0.4011
vn -0.3619 0.3365 0.8694
vn 0.3619 0.3365 0.8694
vn 0.3619 0.3365 0.8694
vn 0.3619 0.8415 0.4011
vn -0.3619 0.8415 0.4011
vn -0.3619 -0.3365 0.8694
vn -0.3619 -0.8415 0.4011
vn 0.3619 -0.8415 0.4011
vn 0.3619 -0.8415 0.4011
vn 0.3619 -0.3365 0.8694
vn -0.3619 -0.3365 0.8694
vn -0.3453 0.9244 0.1621
vn -0.2906 0.7896 0.5404
vn 0.2906 0.7896 0.5404
vn 0.2906 0.7896 0.5404
vn 0.3453 0.9244 0.1621
vn -0.3453 0.9244 0.1621
vn -0.2906 -0.7896 0.5404
vn -0.3453 -0.9244 0.1621
vn 0.3453 -0.9244 0.1621
vn 0.3453 -0.9244 0.1621
vn 0.2906 -0.7896 0.5404
vn -0.2906 -0.7896 0.5404
vn -0.4157 -0.8830 0.2180
vn -0.3488 -0.7413 0.5735
vn 0.3488 -0.7413 0.5735
vn 0.3488 -0.7413 0.5735
vn 0.4157 -0.8830 0.2180
vn -0.4157 -0.8830 0.2180
vn -0.3488 0.7413 0.5735
vn -0.4157 0.8830 0.2180
vn 0.4157 0.8830 0.2180
vn 0.4157 0.8830 0.2180
vn 0.3488 0.7413 0.5735
vn -0.3488 0.7413 0.5735
# 252 vertex normals

vt 0.9911 0.7168 -0.1096
vt 0.8583 0.7168 -0.1096
vt 0.9493 0.9956 -0.1096
vt 0.9000 0.9956 -0.1096
vt 0.7117 0.7153 0.5000
vt 0.8445 0.7153 0.5000
vt 0.7534 0.9942 0.5000
vt 0.8028 0.9942 0.5000
vt 0.9911 0.7316 -0.1096
vt 0.8583 0.7316 -0.1096
vt 0.8445 0.7301 0.5000
vt 0.7117 0.7301 0.5000
vt 0.8898 0.7809 -0.1096
vt 0.7433 0.7795 0.5000
vt 0.9595 0.7809 -0.1096
vt 0.8129 0.7795 0.5000
vt 0.9926 0.7132 0.0000
vt 0.0041 0.6960 0.0000
vt 0.9938 0.6960 0.0000
vt 0.7101 0.7117 0.0000
vt 0.0021 0.6792 0.0000
vt 0.9938 0.6812 0.0000
vt 0.0041 0.3934 0.0000
vt 0.0019 0.3117 0.0000
vt 0.9938 0.3123 0.0000
vt 0.9938 0.3919 0.0000
vt 0.0041 0.0930 0.0000
vt 0.9938 0.0963 0.0000
vt 0.0041 0.6079 0.0000
vt 0.9938 0.6079 0.0000
vt 0.0041 0.0229 0.0000
vt 0.9938 0.0229 0.0000
vt 0.0042 0.0073 0.0000
vt 0.9939 0.0073 0.0000
vt 0.9959 0.6959 0.0000
vt 0.0210 0.9885 0.0000
vt 0.9958 0.6792 0.0000
vt 0.0211 0.7205 0.0000
vt 0.9960 0.3117 0.0000
vt 0.6723 0.7205 0.0000
vt 0.9960 0.0957 0.0000
vt 0.6723 0.9885 0.0000
vt 0.8567 0.7132 0.0000
vt 0.8461 0.7117 0.0000
vt 0.9961 0.0100 0.0000
vt 0.9960 0.3925 0.0000
vt 0.0020 0.0100 0.0000
vt 0.0019 0.3925 0.0000
vt 0.0020 0.6959 0.0000
vt 0.0021 0.0251 0.0000
vt 0.0019 0.6085 0.0000
vt 0.0041 0.3919 0.0000
vt 0.9938 0.3108 0.0000
vt 0.9938 0.3934 0.0000
vt 0.0041 0.0255 0.0000
vt 0.9938 0.6787 0.0000
vt 0.0041 0.6113 0.0000
vt 0.9938 0.0930 0.0000
vt 0.9958 0.0251 0.0000
vt 0.9938 0.0255 0.0000
vt 0.9960 0.6085 0.0000
vt 0.9938 0.6113 0.0000
vt 0.0041 0.3108 0.0000
vt 0.0041 0.3123 0.0000
vt 0.0041 0.6787 0.0000
vt 0.0041 0.6812 0.0000
vt 0.0041 0.0963 0.0000
vt 0.0019 0.0957 0.0000
# 68 texture coords

o Concrete_Barrier
g Concrete_Barrier
usemtl ConcreteBarr
s 1024
f 24/9/1 25/10/2 2/2/3 
f 2/2/4 20/1/5 24/9/6 
s 16
f 13/6/7 16/11/8 35/12/9 
f 35/12/10 12/5/11 13/6/12 
s 1024
f 1/36/13 21/38/14 5/40/15 
f 5/40/16 4/42/17 1/36/18 
s 2097152
f 42/66/19 9/22/20 5/19/21 
f 5/19/22 21/18/23 42/66/24 
s 16384
f 28/52/25 40/64/26 6/25/27 
f 6/25/28 7/26/29 28/52/30 
s 1073741825
f 43/67/31 11/28/32 29/53/33 
f 29/53/34 39/63/35 43/67/36 
s 1024
f 44/15/37 26/13/38 25/10/39 
f 25/10/40 24/9/41 44/15/42 
s 16
f 37/16/43 18/14/44 35/12/45 
f 35/12/46 16/11/47 37/16/48 
s 65536
f 33/57/49 38/62/50 32/56/51 
f 32/56/52 41/65/53 33/57/54 
s 16777216
f 1/33/55 4/34/56 17/32/57 
f 17/32/58 8/31/59 1/33/60 
s 134217728
f 31/55/61 36/60/62 34/58/63 
f 34/58/64 27/27/65 31/55/66 
s 1024
f 22/3/67 23/4/68 26/13/69 
f 26/13/70 44/15/71 22/3/72 
s 16
f 15/8/73 14/7/74 18/14/75 
f 18/14/76 37/16/77 15/8/78 
s 4194304
f 3/23/79 30/54/80 19/30/81 
f 19/30/82 10/29/83 3/23/84 
s 4
f 12/5/85 4/20/86 5/44/87 
f 5/44/88 13/6/89 12/5/90 
s 1
f 5/19/91 9/22/92 16/37/93 
f 16/37/94 13/35/95 5/19/96 
f 7/26/97 6/25/98 14/39/99 
f 14/39/100 15/46/101 7/26/102 
f 29/53/103 11/28/104 18/41/105 
f 18/41/106 14/39/107 29/53/108 
f 32/56/109 38/62/110 37/61/111 
f 37/61/112 16/37/113 32/56/114 
f 35/59/115 17/32/116 4/34/117 
f 4/34/118 12/45/119 35/59/120 
f 34/58/121 36/60/122 35/59/123 
f 35/59/124 18/41/125 34/58/126 
f 19/30/127 30/54/128 15/46/129 
f 15/46/130 37/61/131 19/30/132 
f 1/33/133 8/31/134 24/50/135 
f 24/50/136 20/47/137 1/33/138 
f 40/64/139 28/52/140 23/48/141 
f 23/48/142 22/24/143 40/64/144 
f 3/23/145 10/29/146 26/51/147 
f 26/51/148 23/48/149 3/23/150 
s 4
f 2/2/151 21/43/152 1/17/153 
f 1/17/154 20/1/155 2/2/156 
s 1
f 31/55/157 27/27/158 44/68/159 
f 44/68/160 24/50/161 31/55/162 
f 25/21/163 42/66/164 21/18/165 
f 21/18/166 2/49/167 25/21/168 
f 33/57/169 41/65/170 25/21/171 
f 25/21/172 26/51/173 33/57/174 
f 43/67/175 39/63/176 22/24/177 
f 22/24/178 44/68/179 43/67/180 
f 3/23/181 23/48/182 28/52/183 
f 6/25/184 29/53/185 14/39/186 
f 7/26/187 15/46/188 30/54/189 
f 8/31/190 31/55/191 24/50/192 
f 9/22/193 32/56/194 16/37/195 
f 10/29/196 33/57/197 26/51/198 
f 11/28/199 34/58/200 18/41/201 
f 17/32/202 35/59/203 36/60/204 
f 19/30/205 37/61/206 38/62/207 
f 22/24/208 39/63/209 40/64/210 
f 25/21/211 41/65/212 42/66/213 
f 27/27/214 43/67/215 44/68/216 
f 3/23/217 28/52/218 7/26/219 
f 7/26/220 30/54/221 3/23/222 
f 40/64/223 39/63/224 29/53/225 
f 29/53/226 6/25/227 40/64/228 
f 42/66/229 41/65/230 32/56/231 
f 32/56/232 9/22/233 42/66/234 
f 31/55/235 8/31/236 17/32/237 
f 17/32/238 36/60/239 31/55/240 
f 43/67/241 27/27/242 34/58/243 
f 34/58/244 11/28/245 43/67/246 
f 33/57/247 10/29/248 19/30/249 
f 19/30/250 38/62/251 33/57/252 
# 0 polygons - 84 triangles

