# 3ds Max Wavefront OBJ Exporter v0.97b - (c)2007 guruware
# File Created: 28.03.2011 15:45:24

mtllib windows.mtl

#
# object windows
#

v  0.7567 1.1544 1.7901
v  0.6478 1.1356 2.0654
v  0.8679 1.1356 2.0654
v  0.9664 1.1530 1.8099
v  0.8635 1.1554 1.7756
v  0.5561 1.1183 2.2945
v  0.7761 1.1183 2.2945
v  0.8870 1.1306 2.0654
v  0.1999 1.1492 1.8656
v  0.1276 1.1356 2.0654
v  0.1280 1.1183 2.2945
v  0.4847 1.0941 2.4597
v  0.6955 1.0950 2.4533
v  0.7304 1.0915 2.4420
v  0.1274 1.1444 1.9372
v  0.1633 1.1484 1.8783
v  0.1373 1.1467 1.9025
v  0.9373 1.1552 1.7783
v  0.1642 1.0942 2.4585
v  0.2008 1.0928 2.4683
v  0.1382 1.0980 2.4329
v  0.7548 1.0916 2.4170
v  0.8983 1.1557 1.7709
v  0.9709 1.1469 1.8425
v  0.8008 1.1116 2.2945
v  0.8984 1.0909 2.3078
v  0.9596 1.0296 2.3078
v  1.0561 1.0476 2.0637
v  0.9858 0.9319 2.3078
v  1.0823 0.9499 2.0637
v  1.0823 0.0000 2.0637
v  1.0823 0.8910 2.0637
v  0.9858 0.8803 2.3078
v  0.8862 0.8979 2.5448
v  0.8600 0.9957 2.5448
v  0.8909 0.0000 2.5448
v  0.8865 0.8413 2.5448
v  0.9635 1.1152 2.1170
v  0.9732 1.1186 2.0857
v  0.8027 1.0529 2.5448
v  1.0850 1.1125 1.8583
v  1.0491 1.1234 1.9130
v  1.1596 1.0488 1.8092
v  1.2038 0.0000 1.7502
v  1.2038 0.5276 1.7500
v  1.2013 0.7372 1.7585
v  1.1946 0.9042 1.7757
v  0.9807 1.1201 2.0637
v  1.0117 1.1247 1.9885
v  1.1313 1.0782 1.8319
v  1.1902 0.9582 1.7871
v  0.9858 0.0000 2.3078
v  0.6478 -1.1356 2.0654
v  0.7567 -1.1544 1.7901
v  0.8679 -1.1356 2.0654
v  0.8635 -1.1554 1.7756
v  0.9664 -1.1530 1.8099
v  0.5561 -1.1183 2.2945
v  0.7761 -1.1183 2.2945
v  0.8870 -1.1306 2.0654
v  0.1999 -1.1492 1.8656
v  0.1276 -1.1356 2.0654
v  0.1280 -1.1183 2.2945
v  0.4847 -1.0941 2.4597
v  0.6955 -1.0950 2.4533
v  0.7304 -1.0915 2.4420
v  0.1274 -1.1444 1.9372
v  0.1633 -1.1484 1.8783
v  0.1373 -1.1467 1.9025
v  0.9373 -1.1552 1.7783
v  0.2008 -1.0928 2.4683
v  0.1642 -1.0942 2.4585
v  0.1382 -1.0980 2.4329
v  0.7548 -1.0916 2.4170
v  0.8983 -1.1557 1.7709
v  0.9709 -1.1469 1.8425
v  0.8008 -1.1116 2.2945
v  0.9596 -1.0296 2.3078
v  0.8984 -1.0909 2.3078
v  1.0561 -1.0476 2.0637
v  0.9858 -0.9319 2.3078
v  1.0823 -0.9499 2.0637
v  1.0823 -0.8910 2.0637
v  0.9858 -0.8803 2.3078
v  0.8862 -0.8979 2.5448
v  0.8600 -0.9957 2.5448
v  0.8865 -0.8413 2.5448
v  0.9635 -1.1152 2.1170
v  0.9732 -1.1186 2.0857
v  0.8027 -1.0529 2.5448
v  1.0491 -1.1234 1.9130
v  1.0850 -1.1125 1.8583
v  1.1596 -1.0488 1.8092
v  1.2038 -0.5276 1.7500
v  1.1946 -0.9042 1.7757
v  1.2013 -0.7372 1.7585
v  0.9807 -1.1201 2.0637
v  1.0117 -1.1247 1.9885
v  1.1313 -1.0782 1.8319
v  1.1902 -0.9582 1.7871
# 100 vertices

vn 0.0000 0.9977 0.0681
vn 0.0000 0.9974 0.0717
vn 0.1261 0.9846 0.1209
vn 0.0445 0.9954 0.0852
vn -0.0000 0.9977 0.0677
vn 0.0000 0.9977 0.0681
vn 0.0000 0.9974 0.0717
vn -0.0000 0.9939 0.1102
vn 0.1295 0.9781 0.1629
vn 0.1295 0.9781 0.1629
vn 0.1261 0.9846 0.1209
vn 0.0000 0.9974 0.0717
vn 0.2499 0.9537 0.1672
vn 0.1261 0.9846 0.1209
vn 0.1295 0.9781 0.1629
vn 0.0000 0.9974 0.0717
vn 0.0000 0.9977 0.0681
vn 0.0001 0.9977 0.0680
vn 0.0000 0.9974 0.0717
vn -0.0000 0.9939 0.1102
vn 0.0000 0.9974 0.0717
vn -0.0000 0.9939 0.1102
vn 0.0000 0.9974 0.0717
vn -0.0000 0.9940 0.1095
vn -0.0000 0.9940 0.1095
vn -0.0000 0.9894 0.1451
vn -0.0000 0.9939 0.1102
vn 0.1295 0.9781 0.1629
vn 0.0485 0.9844 0.1690
vn 0.1851 0.9551 0.2311
vn 0.0000 0.9974 0.0717
vn 0.0000 0.9974 0.0717
vn -0.0000 0.9977 0.0681
vn -0.0000 0.9977 0.0681
vn -0.0000 0.9977 0.0681
vn 0.0000 0.9974 0.0717
vn -0.0000 0.9977 0.0681
vn -0.0001 0.9977 0.0682
vn -0.0000 0.9977 0.0681
vn -0.0000 0.9977 0.0677
vn 0.0445 0.9954 0.0852
vn -0.0001 0.9977 0.0679
vn 0.0485 0.9844 0.1690
vn 0.1295 0.9781 0.1629
vn -0.0000 0.9939 0.1102
vn -0.0002 0.9894 0.1454
vn -0.0001 0.9894 0.1453
vn -0.0001 0.9894 0.1454
vn 0.0001 0.9977 0.0680
vn -0.0000 0.9977 0.0681
vn 0.0000 0.9974 0.0717
vn 0.1851 0.9551 0.2311
vn 0.2470 0.9370 0.2469
vn 0.1295 0.9781 0.1629
vn -0.0000 0.9939 0.1102
vn -0.0000 0.9894 0.1451
vn 0.0485 0.9844 0.1690
vn -0.0001 0.9894 0.1454
vn -0.0001 0.9894 0.1453
vn -0.0000 0.9894 0.1451
vn -0.0000 0.9894 0.1451
vn -0.0000 0.9940 0.1095
vn -0.0001 0.9894 0.1454
vn 0.0000 0.9977 0.0681
vn 0.1261 0.9846 0.1209
vn 0.0445 0.9954 0.0852
vn -0.0000 0.9977 0.0677
vn -0.0001 0.9977 0.0679
vn 0.0002 0.9982 0.0606
vn 0.0445 0.9954 0.0852
vn 0.1261 0.9846 0.1209
vn 0.2206 0.9636 0.1509
vn 0.1261 0.9846 0.1209
vn 0.2499 0.9537 0.1672
vn 0.2206 0.9636 0.1509
vn 0.1295 0.9781 0.1629
vn 0.2561 0.9447 0.2047
vn 0.2499 0.9537 0.1672
vn 0.2561 0.9447 0.2047
vn 0.1295 0.9781 0.1629
vn 0.2470 0.9370 0.2469
vn 0.6636 0.6636 0.3452
vn 0.7999 0.4688 0.3747
vn 0.8074 0.4755 0.3491
vn 0.8074 0.4755 0.3491
vn 0.7999 0.4688 0.3747
vn 0.9145 0.1224 0.3857
vn 0.9145 0.1224 0.3857
vn 0.9212 0.1214 0.3696
vn 0.8074 0.4755 0.3491
vn 0.9312 0.0000 0.3644
vn 0.9309 0.0000 0.3654
vn 0.9263 0.0010 0.3767
vn 0.9098 0.1156 0.3986
vn 0.7999 0.4688 0.3747
vn 0.7876 0.4699 0.3985
vn 0.7999 0.4688 0.3747
vn 0.9098 0.1156 0.3986
vn 0.9145 0.1224 0.3857
vn 0.9271 0.0000 0.3747
vn 0.9263 0.0010 0.3767
vn 0.9219 0.0048 0.3873
vn 0.9145 0.1224 0.3857
vn 0.9098 0.1156 0.3986
vn 0.9263 0.0010 0.3767
vn 0.8074 0.4755 0.3491
vn 0.6698 0.6772 0.3045
vn 0.6636 0.6636 0.3452
vn 0.6698 0.6772 0.3045
vn 0.8074 0.4755 0.3491
vn 0.6666 0.6916 0.2782
vn 0.6568 0.6568 0.3703
vn 0.7999 0.4688 0.3747
vn 0.6636 0.6636 0.3452
vn 0.6728 0.6730 0.3072
vn 0.6695 0.6757 0.3087
vn 0.8074 0.4755 0.3491
vn 0.8809 0.3138 0.3543
vn 0.8074 0.4755 0.3491
vn 0.9212 0.1214 0.3696
vn 0.9324 0.0000 0.3614
vn 0.9339 -0.0026 0.3575
vn 0.9312 0.0000 0.3644
vn 0.9320 -0.0005 0.3624
vn 0.9316 0.0000 0.3634
vn 0.9309 0.0000 0.3654
vn 0.6568 0.6568 0.3703
vn 0.7876 0.4699 0.3985
vn 0.7999 0.4688 0.3747
vn 0.6666 0.6916 0.2782
vn 0.8074 0.4755 0.3491
vn 0.6631 0.6900 0.2901
vn 0.8074 0.4755 0.3491
vn 0.6581 0.6844 0.3137
vn 0.6631 0.6900 0.2901
vn 0.6581 0.6844 0.3137
vn 0.8074 0.4755 0.3491
vn 0.6695 0.6757 0.3087
vn 0.8074 0.4755 0.3491
vn 0.7602 0.5647 0.3213
vn 0.6728 0.6730 0.3072
vn 0.7602 0.5647 0.3213
vn 0.8074 0.4755 0.3491
vn 0.8809 0.3138 0.3543
vn 0.9212 0.1214 0.3696
vn 0.9268 0.0919 0.3642
vn 0.8809 0.3138 0.3543
vn 0.9268 0.0919 0.3642
vn 0.9212 0.1214 0.3696
vn 0.9316 0.0000 0.3634
vn 0.9316 0.0000 0.3634
vn 0.9212 0.1214 0.3696
vn 0.9309 0.0000 0.3654
vn 0.9339 -0.0026 0.3575
vn 0.9320 -0.0005 0.3624
vn 0.9312 0.0000 0.3644
vn 0.9145 0.1224 0.3857
vn 0.9309 0.0000 0.3654
vn 0.9212 0.1214 0.3696
vn 0.9145 0.1224 0.3857
vn 0.9263 0.0010 0.3767
vn 0.9309 0.0000 0.3654
vn 0.9320 -0.0005 0.3624
vn 0.9309 0.0000 0.3654
vn 0.9312 0.0000 0.3644
vn 0.9263 0.0010 0.3767
vn 0.9271 0.0000 0.3747
vn 0.9292 0.0000 0.3696
vn 0.9312 0.0000 0.3644
vn 0.9263 0.0010 0.3767
vn 0.9292 0.0000 0.3696
vn 0.9219 0.0048 0.3873
vn 0.9263 0.0010 0.3767
vn 0.9098 0.1156 0.3986
vn 0.0000 -0.9974 0.0717
vn 0.0000 -0.9977 0.0681
vn 0.1261 -0.9846 0.1209
vn -0.0000 -0.9977 0.0677
vn 0.0445 -0.9954 0.0852
vn 0.0000 -0.9977 0.0681
vn -0.0000 -0.9939 0.1102
vn 0.0000 -0.9974 0.0717
vn 0.1295 -0.9781 0.1629
vn 0.1261 -0.9846 0.1209
vn 0.1295 -0.9781 0.1629
vn 0.0000 -0.9974 0.0717
vn 0.1261 -0.9846 0.1209
vn 0.2499 -0.9537 0.1672
vn 0.1295 -0.9781 0.1629
vn 0.0000 -0.9977 0.0681
vn 0.0000 -0.9974 0.0717
vn 0.0001 -0.9977 0.0680
vn -0.0000 -0.9939 0.1102
vn 0.0000 -0.9974 0.0717
vn 0.0000 -0.9974 0.0717
vn 0.0000 -0.9974 0.0717
vn -0.0000 -0.9939 0.1102
vn -0.0000 -0.9940 0.1095
vn -0.0000 -0.9894 0.1451
vn -0.0000 -0.9940 0.1095
vn -0.0000 -0.9939 0.1102
vn 0.0485 -0.9844 0.1690
vn 0.1295 -0.9781 0.1629
vn 0.1851 -0.9551 0.2311
vn 0.0000 -0.9974 0.0717
vn 0.0000 -0.9974 0.0717
vn -0.0000 -0.9977 0.0681
vn -0.0000 -0.9977 0.0681
vn -0.0000 -0.9977 0.0681
vn 0.0000 -0.9974 0.0717
vn -0.0001 -0.9977 0.0682
vn -0.0000 -0.9977 0.0681
vn -0.0000 -0.9977 0.0681
vn 0.0445 -0.9954 0.0852
vn -0.0000 -0.9977 0.0677
vn -0.0001 -0.9977 0.0679
vn 0.1295 -0.9781 0.1629
vn 0.0485 -0.9844 0.1690
vn -0.0000 -0.9939 0.1102
vn -0.0001 -0.9894 0.1453
vn -0.0002 -0.9894 0.1454
vn -0.0001 -0.9894 0.1454
vn -0.0000 -0.9977 0.0681
vn 0.0001 -0.9977 0.0680
vn 0.0000 -0.9974 0.0717
vn 0.2470 -0.9370 0.2469
vn 0.1851 -0.9551 0.2311
vn 0.1295 -0.9781 0.1629
vn -0.0000 -0.9894 0.1451
vn -0.0000 -0.9939 0.1102
vn 0.0485 -0.9844 0.1690
vn -0.0001 -0.9894 0.1453
vn -0.0001 -0.9894 0.1454
vn -0.0000 -0.9894 0.1451
vn -0.0000 -0.9940 0.1095
vn -0.0000 -0.9894 0.1451
vn -0.0001 -0.9894 0.1454
vn 0.1261 -0.9846 0.1209
vn 0.0000 -0.9977 0.0681
vn 0.0445 -0.9954 0.0852
vn -0.0001 -0.9977 0.0679
vn -0.0000 -0.9977 0.0677
vn 0.0002 -0.9982 0.0606
vn 0.1261 -0.9846 0.1209
vn 0.0445 -0.9954 0.0852
vn 0.2206 -0.9636 0.1509
vn 0.2499 -0.9537 0.1672
vn 0.1261 -0.9846 0.1209
vn 0.2206 -0.9636 0.1509
vn 0.2561 -0.9447 0.2047
vn 0.1295 -0.9781 0.1629
vn 0.2499 -0.9537 0.1672
vn 0.1295 -0.9781 0.1629
vn 0.2561 -0.9447 0.2047
vn 0.2470 -0.9370 0.2469
vn 0.7999 -0.4688 0.3747
vn 0.6636 -0.6636 0.3452
vn 0.8074 -0.4755 0.3491
vn 0.7999 -0.4688 0.3747
vn 0.8074 -0.4755 0.3491
vn 0.9145 -0.1224 0.3857
vn 0.9212 -0.1214 0.3696
vn 0.9145 -0.1224 0.3857
vn 0.8074 -0.4755 0.3491
vn 0.9309 -0.0000 0.3654
vn 0.9312 0.0000 0.3644
vn 0.9263 -0.0010 0.3767
vn 0.7999 -0.4688 0.3747
vn 0.9098 -0.1156 0.3986
vn 0.7876 -0.4699 0.3985
vn 0.9098 -0.1156 0.3986
vn 0.7999 -0.4688 0.3747
vn 0.9145 -0.1224 0.3857
vn 0.9263 -0.0010 0.3767
vn 0.9271 0.0000 0.3747
vn 0.9219 -0.0048 0.3873
vn 0.9098 -0.1156 0.3986
vn 0.9145 -0.1224 0.3857
vn 0.9263 -0.0010 0.3767
vn 0.6698 -0.6772 0.3045
vn 0.8074 -0.4755 0.3491
vn 0.6636 -0.6636 0.3452
vn 0.8074 -0.4755 0.3491
vn 0.6698 -0.6772 0.3045
vn 0.6666 -0.6916 0.2782
vn 0.7999 -0.4688 0.3747
vn 0.6568 -0.6568 0.3703
vn 0.6636 -0.6636 0.3452
vn 0.6695 -0.6757 0.3087
vn 0.6728 -0.6730 0.3072
vn 0.8074 -0.4755 0.3491
vn 0.8074 -0.4755 0.3491
vn 0.8809 -0.3138 0.3543
vn 0.9212 -0.1214 0.3696
vn 0.9339 0.0026 0.3575
vn 0.9324 0.0000 0.3614
vn 0.9312 0.0000 0.3644
vn 0.9316 -0.0000 0.3634
vn 0.9320 0.0005 0.3624
vn 0.9309 -0.0000 0.3654
vn 0.7876 -0.4699 0.3985
vn 0.6568 -0.6568 0.3703
vn 0.7999 -0.4688 0.3747
vn 0.8074 -0.4755 0.3491
vn 0.6666 -0.6916 0.2782
vn 0.6631 -0.6900 0.2901
vn 0.6581 -0.6844 0.3137
vn 0.8074 -0.4755 0.3491
vn 0.6631 -0.6900 0.2901
vn 0.8074 -0.4755 0.3491
vn 0.6581 -0.6844 0.3137
vn 0.6695 -0.6757 0.3087
vn 0.7602 -0.5647 0.3213
vn 0.8074 -0.4755 0.3491
vn 0.6728 -0.6730 0.3072
vn 0.8074 -0.4755 0.3491
vn 0.7602 -0.5647 0.3213
vn 0.8809 -0.3138 0.3543
vn 0.9268 -0.0919 0.3642
vn 0.9212 -0.1214 0.3696
vn 0.8809 -0.3138 0.3543
vn 0.9212 -0.1214 0.3696
vn 0.9268 -0.0919 0.3642
vn 0.9316 -0.0000 0.3634
vn 0.9212 -0.1214 0.3696
vn 0.9316 -0.0000 0.3634
vn 0.9309 -0.0000 0.3654
vn 0.9320 0.0005 0.3624
vn 0.9339 0.0026 0.3575
vn 0.9312 0.0000 0.3644
vn 0.9309 -0.0000 0.3654
vn 0.9145 -0.1224 0.3857
vn 0.9212 -0.1214 0.3696
vn 0.9263 -0.0010 0.3767
vn 0.9145 -0.1224 0.3857
vn 0.9309 -0.0000 0.3654
vn 0.9309 -0.0000 0.3654
vn 0.9320 0.0005 0.3624
vn 0.9312 0.0000 0.3644
vn 0.9271 0.0000 0.3747
vn 0.9263 -0.0010 0.3767
vn 0.9292 0.0000 0.3696
vn 0.9263 -0.0010 0.3767
vn 0.9312 0.0000 0.3644
vn 0.9292 0.0000 0.3696
vn 0.9263 -0.0010 0.3767
vn 0.9219 -0.0048 0.3873
vn 0.9098 -0.1156 0.3986
# 348 vertex normals

vt 0.7458 0.0280 0.0010
vt 0.6169 0.4224 0.0092
vt 0.8775 0.4224 0.0092
vt 0.9942 0.0564 0.0016
vt 0.8724 0.0073 0.0006
vt 0.5083 0.7505 0.0166
vt 0.7689 0.7505 0.0166
vt 0.9001 0.4224 0.0113
vt 0.0865 0.1362 0.0033
vt 0.0008 0.4224 0.0092
vt 0.0013 0.7505 0.0166
vt 0.4238 0.9871 0.0271
vt 0.6733 0.9780 0.0267
vt 0.7147 0.9617 0.0282
vt 0.0005 0.2387 0.0054
vt 0.0431 0.1543 0.0036
vt 0.0122 0.1891 0.0044
vt 0.9598 0.0112 0.0007
vt 0.0441 0.9855 0.0271
vt 0.0875 0.9995 0.0277
vt 0.0133 0.9487 0.0254
vt 0.7437 0.9260 0.0282
vt 0.9136 0.0005 0.0005
vt 0.9995 0.1030 0.0043
vt 0.7981 0.7505 0.0195
vt 0.0155 0.7016 0.7612
vt 0.0427 0.7016 0.6087
vt 0.0347 0.3947 0.3685
vt 0.0861 0.7016 0.5435
vt 0.0782 0.3947 0.3033
vt 0.5000 0.3947 0.3033
vt 0.1043 0.3947 0.3033
vt 0.1091 0.7016 0.5435
vt 0.1012 0.9995 0.7917
vt 0.0578 0.9995 0.8569
vt 0.5000 0.9995 0.7800
vt 0.1264 0.9995 0.7909
vt 0.0047 0.4618 0.5992
vt 0.0032 0.4225 0.5749
vt 0.0324 0.9995 0.9995
vt 0.0059 0.1366 0.2965
vt 0.0011 0.2054 0.3859
vt 0.0342 0.0749 0.1108
vt 0.5000 0.0008 0.0006
vt 0.2657 0.0005 0.0005
vt 0.1726 0.0112 0.0068
vt 0.0984 0.0329 0.0235
vt 0.0026 0.3947 0.5562
vt 0.0005 0.3003 0.4790
vt 0.0212 0.1034 0.1811
vt 0.0745 0.0471 0.0346
vt 0.5000 0.7016 0.5435
vt 0.6169 0.4224 0.9908
vt 0.7458 0.0280 0.9990
vt 0.8775 0.4224 0.9908
vt 0.8724 0.0073 0.9994
vt 0.9942 0.0564 0.9984
vt 0.5083 0.7505 0.9834
vt 0.7689 0.7505 0.9834
vt 0.9001 0.4224 0.9887
vt 0.0865 0.1362 0.9967
vt 0.0008 0.4224 0.9908
vt 0.0013 0.7505 0.9834
vt 0.4238 0.9871 0.9729
vt 0.6733 0.9780 0.9733
vt 0.7147 0.9617 0.9718
vt 0.0005 0.2387 0.9946
vt 0.0431 0.1543 0.9964
vt 0.0122 0.1891 0.9956
vt 0.9598 0.0112 0.9993
vt 0.0875 0.9995 0.9723
vt 0.0441 0.9855 0.9729
vt 0.0133 0.9487 0.9746
vt 0.7437 0.9260 0.9718
vt 0.9136 0.0005 0.9995
vt 0.9995 0.1030 0.9957
vt 0.7981 0.7505 0.9805
vt 0.9573 0.7016 0.6087
vt 0.9845 0.7016 0.7612
vt 0.9653 0.3947 0.3685
vt 0.9139 0.7016 0.5435
vt 0.9218 0.3947 0.3033
vt 0.8957 0.3947 0.3033
vt 0.8909 0.7016 0.5435
vt 0.8988 0.9995 0.7917
vt 0.9422 0.9995 0.8569
vt 0.8736 0.9995 0.7909
vt 0.9953 0.4618 0.5992
vt 0.9968 0.4225 0.5749
vt 0.9676 0.9995 0.9995
vt 0.9989 0.2054 0.3859
vt 0.9941 0.1366 0.2965
vt 0.9658 0.0749 0.1108
vt 0.7343 0.0005 0.0005
vt 0.9016 0.0329 0.0235
vt 0.8274 0.0112 0.0068
vt 0.9974 0.3947 0.5562
vt 0.9995 0.3003 0.4790
vt 0.9788 0.1034 0.1811
vt 0.9255 0.0471 0.0346
# 100 texture coords

g windows
usemtl white_glossy
s 1
f 1/1/1 2/2/2 3/3/3 
f 4/4/4 5/5/5 1/1/6 
f 2/2/7 6/6/8 7/7/9 
f 7/7/10 3/3/11 2/2/12 
f 8/8/13 3/3/14 7/7/15 
f 2/2/16 1/1/17 9/9/18 
f 10/10/19 6/6/20 2/2/21 
f 6/6/22 10/10/23 11/11/24 
f 11/11/25 12/12/26 6/6/27 
f 7/7/28 13/13/29 14/14/30 
f 10/10/31 2/2/32 15/15/33 
f 16/16/34 15/15/35 2/2/36 
f 16/16/37 17/17/38 15/15/39 
f 5/5/40 4/4/41 18/18/42 
f 13/13/43 7/7/44 6/6/45 
f 19/19/46 20/20/47 21/21/48 
f 9/9/49 16/16/50 2/2/51 
f 14/14/52 22/22/53 7/7/54 
f 6/6/55 12/12/56 13/13/57 
f 21/21/58 20/20/59 12/12/60 
f 12/12/61 11/11/62 21/21/63 
f 1/1/64 3/3/65 4/4/66 
f 5/5/67 18/18/68 23/23/69 
f 4/4/70 3/3/71 24/24/72 
f 3/3/73 8/8/74 24/24/75 
f 7/7/76 25/25/77 8/8/78 
f 25/25/79 7/7/80 22/22/81 
f 26/26/82 27/27/83 28/28/84 
f 28/28/85 27/27/86 29/29/87 
f 29/29/88 30/30/89 28/28/90 
f 31/31/91 32/32/92 33/33/93 
f 34/34/94 27/27/95 35/35/96 
f 27/27/97 34/34/98 29/29/99 
f 36/36/100 33/33/101 37/37/102 
f 29/29/103 34/34/104 33/33/105 
f 28/28/106 38/38/107 26/26/108 
f 38/38/109 28/28/110 39/39/111 
f 40/40/112 27/27/113 26/26/114 
f 41/41/115 42/42/116 28/28/117 
f 43/43/118 28/28/119 30/30/120 
f 44/44/121 45/45/122 31/31/123 
f 46/46/124 47/47/125 32/32/126 
f 40/40/127 35/35/128 27/27/129 
f 39/39/130 28/28/131 48/48/132 
f 28/28/133 49/49/134 48/48/135 
f 49/49/136 28/28/137 42/42/138 
f 28/28/139 50/50/140 41/41/141 
f 50/50/142 28/28/143 43/43/144 
f 30/30/145 51/51/146 43/43/147 
f 51/51/148 30/30/149 47/47/150 
f 47/47/151 30/30/152 32/32/153 
f 45/45/154 46/46/155 31/31/156 
f 29/29/157 32/32/158 30/30/159 
f 29/29/160 33/33/161 32/32/162 
f 46/46/163 32/32/164 31/31/165 
f 33/33/166 36/36/167 52/52/168 
f 31/31/169 33/33/170 52/52/171 
f 37/37/172 33/33/173 34/34/174 
f 53/53/175 54/54/176 55/55/177 
f 56/56/178 57/57/179 54/54/180 
f 58/58/181 53/53/182 59/59/183 
f 55/55/184 59/59/185 53/53/186 
f 55/55/187 60/60/188 59/59/189 
f 54/54/190 53/53/191 61/61/192 
f 58/58/193 62/62/194 53/53/195 
f 62/62/196 58/58/197 63/63/198 
f 64/64/199 63/63/200 58/58/201 
f 65/65/202 59/59/203 66/66/204 
f 53/53/205 62/62/206 67/67/207 
f 67/67/208 68/68/209 53/53/210 
f 69/69/211 68/68/212 67/67/213 
f 57/57/214 56/56/215 70/70/216 
f 59/59/217 65/65/218 58/58/219 
f 71/71/220 72/72/221 73/73/222 
f 68/68/223 61/61/224 53/53/225 
f 74/74/226 66/66/227 59/59/228 
f 64/64/229 58/58/230 65/65/231 
f 71/71/232 73/73/233 64/64/234 
f 63/63/235 64/64/236 73/73/237 
f 55/55/238 54/54/239 57/57/240 
f 70/70/241 56/56/242 75/75/243 
f 55/55/244 57/57/245 76/76/246 
f 60/60/247 55/55/248 76/76/249 
f 77/77/250 59/59/251 60/60/252 
f 59/59/253 77/77/254 74/74/255 
f 78/78/256 79/79/257 80/80/258 
f 78/78/259 80/80/260 81/81/261 
f 82/82/262 81/81/263 80/80/264 
f 83/83/265 31/31/266 84/84/267 
f 78/78/268 85/85/269 86/86/270 
f 85/85/271 78/78/272 81/81/273 
f 84/84/274 36/36/275 87/87/276 
f 85/85/277 81/81/278 84/84/279 
f 88/88/280 80/80/281 79/79/282 
f 80/80/283 88/88/284 89/89/285 
f 78/78/286 90/90/287 79/79/288 
f 91/91/289 92/92/290 80/80/291 
f 80/80/292 93/93/293 82/82/294 
f 94/94/295 44/44/296 31/31/297 
f 95/95/298 96/96/299 83/83/300 
f 86/86/301 90/90/302 78/78/303 
f 80/80/304 89/89/305 97/97/306 
f 98/98/307 80/80/308 97/97/309 
f 80/80/310 98/98/311 91/91/312 
f 99/99/313 80/80/314 92/92/315 
f 80/80/316 99/99/317 93/93/318 
f 100/100/319 82/82/320 93/93/321 
f 82/82/322 100/100/323 95/95/324 
f 82/82/325 95/95/326 83/83/327 
f 96/96/328 94/94/329 31/31/330 
f 83/83/331 81/81/332 82/82/333 
f 84/84/334 81/81/335 83/83/336 
f 83/83/337 96/96/338 31/31/339 
f 36/36/340 84/84/341 52/52/342 
f 84/84/343 31/31/344 52/52/345 
f 84/84/346 87/87/347 85/85/348 
# 0 polygons - 116 triangles

