# 3ds Max Wavefront OBJ Exporter v0.97b - (c)2007 guruware
# File Created: 17.03.2017 12:44:31

mtllib Sign_Left_Turn_Ahead_36_36.mtl

#
# object Sign_Left_Turn_Ahead_36_36
#

v  -0.031838 -0.029700 2.956900
v  0.031662 -0.029700 2.956900
v  0.031662 0.033800 2.956900
v  -0.031838 0.033800 2.956900
v  -0.031838 -0.029700 -2.381486
v  0.031662 -0.029700 -2.381486
v  0.031662 0.033800 -2.381486
v  -0.031838 0.033800 -2.381486
v  0.630691 -0.039700 2.435364
v  0.637699 -0.039700 2.452284
v  0.630691 -0.039700 2.469203
v  0.017173 -0.039700 1.821846
v  0.017173 -0.039700 3.082721
v  0.000254 -0.039700 3.089730
v  -0.016666 -0.039700 3.082721
v  -0.630184 -0.039700 2.469203
v  -0.637192 -0.039700 2.452284
v  -0.630184 -0.039700 2.435364
v  -0.016666 -0.039700 1.821846
v  0.000254 -0.039700 1.814838
v  -0.016666 -0.036500 3.082721
v  0.000254 -0.036500 3.089730
v  0.017173 -0.036500 3.082721
v  -0.630184 -0.036500 2.469203
v  -0.637192 -0.036500 2.452284
v  -0.630184 -0.036500 2.435364
v  -0.016666 -0.036500 1.821846
v  0.000254 -0.036500 1.814838
v  0.017173 -0.036500 1.821846
v  0.630691 -0.036500 2.469203
v  0.630691 -0.036500 2.435364
v  0.637699 -0.036500 2.452284
# 32 vertices

vn 0.000000 0.000000 1.000000
vn 0.000000 0.000000 1.000000
vn 0.000000 0.000000 1.000000
vn 0.000000 0.000000 1.000000
vn 0.000000 0.000000 1.000000
vn 0.000000 0.000000 1.000000
vn 0.000000 -1.000000 -0.000000
vn 0.000000 -1.000000 -0.000000
vn 0.000000 -1.000000 -0.000000
vn 0.000000 -1.000000 -0.000000
vn 0.000000 -1.000000 -0.000000
vn 0.000000 -1.000000 -0.000000
vn 1.000000 0.000000 -0.000000
vn 1.000000 0.000000 -0.000000
vn 1.000000 0.000000 -0.000000
vn 1.000000 0.000000 -0.000000
vn 1.000000 0.000000 -0.000000
vn 1.000000 0.000000 -0.000000
vn 0.000000 1.000000 0.000000
vn 0.000000 1.000000 0.000000
vn 0.000000 1.000000 0.000000
vn 0.000000 1.000000 0.000000
vn 0.000000 1.000000 0.000000
vn 0.000000 1.000000 0.000000
vn -1.000000 0.000000 0.000000
vn -1.000000 0.000000 0.000000
vn -1.000000 0.000000 0.000000
vn -1.000000 0.000000 0.000000
vn -1.000000 0.000000 0.000000
vn -1.000000 0.000000 0.000000
vn -0.000000 -1.000000 0.000000
vn -0.000000 -1.000000 0.000000
vn 0.000000 -1.000000 0.000000
vn 0.000000 -1.000000 0.000000
vn 0.000000 -1.000000 0.000000
vn -0.000000 -1.000000 0.000000
vn 0.000000 -1.000000 0.000000
vn 0.000001 -1.000000 -0.000000
vn -0.000000 -1.000000 0.000000
vn -0.000000 -1.000000 0.000000
vn 0.000000 -1.000000 0.000000
vn 0.000000 -1.000000 0.000000
vn 0.000000 -1.000000 0.000000
vn 0.000000 -1.000000 0.000000
vn -0.000000 -1.000000 0.000000
vn -0.000000 -1.000000 0.000000
vn 0.000001 -1.000000 -0.000000
vn 0.000000 -1.000000 0.000000
vn 0.000000 -1.000000 0.000000
vn 0.000000 -1.000000 0.000000
vn -0.000000 -1.000000 0.000000
vn -0.000000 -1.000000 0.000000
vn 0.000000 -1.000000 0.000000
vn 0.000000 -1.000000 0.000000
vn -0.000000 -1.000000 0.000000
vn -0.000000 -1.000000 0.000000
vn -0.000000 -1.000000 0.000000
vn -0.000000 -1.000000 0.000000
vn 0.000000 -1.000000 0.000000
vn -0.000000 -1.000000 0.000000
vn -0.000000 1.000000 -0.000000
vn 0.000000 1.000000 0.000000
vn 0.000000 1.000000 0.000000
vn 0.000000 1.000000 0.000000
vn 0.000000 1.000000 0.000000
vn -0.000000 1.000000 -0.000000
vn -0.000000 1.000000 -0.000000
vn 0.000000 1.000000 -0.000000
vn 0.000000 1.000000 0.000000
vn 0.000000 1.000000 0.000000
vn 0.000000 1.000000 0.000000
vn -0.000000 1.000000 -0.000000
vn -0.000000 1.000000 -0.000000
vn -0.000000 1.000000 -0.000000
vn 0.000000 1.000000 -0.000000
vn 0.000000 1.000000 -0.000000
vn 0.000000 1.000000 -0.000000
vn -0.000000 1.000000 -0.000000
vn -0.000000 1.000000 -0.000000
vn -0.000000 1.000000 -0.000000
vn -0.000000 1.000000 -0.000000
vn -0.000000 1.000000 -0.000000
vn -0.000000 1.000000 -0.000000
vn -0.000000 1.000000 -0.000000
vn -0.000000 1.000000 -0.000000
vn 0.000000 1.000000 0.000000
vn -0.000000 1.000000 0.000000
vn -0.000000 1.000000 0.000000
vn -0.000000 1.000000 -0.000000
vn -0.000000 1.000000 -0.000000
# 90 vertex normals

vt 0.125700 0.974100 0.000000
vt 0.125700 0.999500 0.000000
vt 0.064300 0.999500 0.000000
vt 0.064300 0.974100 0.000000
vt 0.061700 0.999800 0.000000
vt 0.000000 0.999800 0.000000
vt 0.000000 0.001400 0.000000
vt 0.061700 0.001400 0.000000
vt 0.061700 0.001100 0.000000
vt 0.994500 0.486700 0.718800
vt 1.000000 0.500000 0.718800
vt 0.994500 0.513300 0.687500
vt 0.513300 0.005500 1.218800
vt 0.513300 0.994500 -0.218800
vt 0.500000 1.000000 -0.218800
vt 0.486700 0.994500 -0.250000
vt 0.005500 0.513300 0.312500
vt 0.000000 0.500000 0.281300
vt 0.005500 0.486700 0.343800
vt 0.486700 0.005500 1.187500
vt 0.500000 -0.000000 1.218800
vt 0.510000 0.975000 0.500000
vt 0.521800 0.980300 0.500000
vt 0.533700 0.975000 0.500000
vt 0.078900 0.507300 0.500000
vt 0.074000 0.494400 0.500000
vt 0.078900 0.481500 0.500000
vt 0.510000 0.013800 0.500000
vt 0.521800 0.008500 0.500000
vt 0.533700 0.013800 0.500000
vt 0.964800 0.507300 0.500000
vt 0.964800 0.481500 0.500000
vt 0.969700 0.494400 0.500000
# 33 texture coords

g Sign_Left_Turn_Ahead_36_36
usemtl Sign_Pole
s 4
f 3/3/1 4/4/2 1/1/3 
f 1/1/4 2/2/5 3/3/6 
s 8
f 2/7/7 1/8/8 5/5/9 
f 5/5/10 6/6/11 2/7/12 
s 16
f 3/5/13 2/6/14 6/7/15 
f 6/7/16 7/8/17 3/5/18 
s 32
f 4/5/19 3/6/20 7/7/21 
f 7/7/22 8/8/23 4/5/24 
s 64
f 1/5/25 4/6/26 8/7/27 
f 8/7/28 5/9/29 1/5/30 
usemtl LeftTurnSign
s 16
f 11/12/31 12/13/32 9/10/33 
f 9/10/34 10/11/35 11/12/36 
f 15/16/37 16/17/38 13/14/39 
f 13/14/40 14/15/41 15/16/42 
f 17/18/43 18/19/44 13/14/45 
f 13/14/46 16/17/47 17/18/48 
f 19/20/49 20/21/50 13/14/51 
f 13/14/52 18/19/53 19/20/54 
f 12/13/55 11/12/56 13/14/57 
f 13/14/58 20/21/59 12/13/60 
usemtl Sign_Pole
f 23/24/61 24/25/62 21/22/63 
f 21/22/64 22/23/65 23/24/66 
f 23/24/67 26/27/68 25/26/69 
f 25/26/70 24/25/71 23/24/72 
f 23/24/73 28/29/74 27/28/75 
f 27/28/76 26/27/77 23/24/78 
f 23/24/79 30/31/80 29/30/81 
f 29/30/82 28/29/83 23/24/84 
f 30/31/85 32/33/86 31/32/87 
f 31/32/88 29/30/89 30/31/90 
# 30 faces

