# 3ds Max Wavefront OBJ Exporter v0.97b - (c)2007 guruware
# File Created: 20.03.2017 12:33:47

mtllib LightPole_C.mtl

#
# object BaseC_low
#

v  0.121920 0.000000 0.000000
v  0.109846 0.052899 0.000000
v  0.076016 0.095321 0.000000
v  0.027130 0.118863 0.000000
v  -0.027130 0.118863 0.000000
v  -0.076016 0.095321 0.000000
v  -0.109846 0.052899 0.000000
v  -0.121920 0.000000 0.000000
v  -0.109846 -0.052899 0.000000
v  -0.076016 -0.095321 0.000000
v  -0.027130 -0.118863 0.000000
v  0.027130 -0.118863 0.000000
v  0.076016 -0.095321 0.000000
v  0.109846 -0.052899 0.000000
v  0.121920 0.000000 0.102803
v  0.109846 0.052899 0.102803
v  0.076016 0.095321 0.102803
v  0.027130 0.118863 0.102803
v  -0.027130 0.118863 0.102803
v  -0.076016 0.095321 0.102803
v  -0.109846 0.052899 0.102803
v  -0.121920 0.000000 0.102803
v  -0.109846 -0.052899 0.102803
v  -0.076016 -0.095321 0.102803
v  -0.027130 -0.118863 0.102803
v  0.027130 -0.118863 0.102803
v  0.076016 -0.095321 0.102803
v  0.109846 -0.052899 0.102803
# 28 vertices

vn 1.000000 0.000000 0.000000
vn 0.900969 0.433884 0.000000
vn 0.676643 0.325854 0.660283
vn 0.676643 0.325854 0.660283
vn 0.751017 0.000000 0.660283
vn 1.000000 0.000000 0.000000
vn 0.900969 0.433884 0.000000
vn 0.623490 0.781832 0.000000
vn 0.468251 0.587169 0.660283
vn 0.468251 0.587169 0.660283
vn 0.676643 0.325854 0.660283
vn 0.900969 0.433884 0.000000
vn 0.623490 0.781832 0.000000
vn 0.222521 0.974928 0.000000
vn 0.167117 0.732187 0.660283
vn 0.167117 0.732187 0.660283
vn 0.468251 0.587169 0.660283
vn 0.623490 0.781832 0.000000
vn 0.222521 0.974928 0.000000
vn -0.222521 0.974928 0.000000
vn -0.167117 0.732187 0.660283
vn -0.167117 0.732187 0.660283
vn 0.167117 0.732187 0.660283
vn 0.222521 0.974928 0.000000
vn -0.222521 0.974928 0.000000
vn -0.623490 0.781832 0.000000
vn -0.468251 0.587168 0.660283
vn -0.468251 0.587168 0.660283
vn -0.167117 0.732187 0.660283
vn -0.222521 0.974928 0.000000
vn -0.623490 0.781832 0.000000
vn -0.900969 0.433884 -0.000000
vn -0.676643 0.325854 0.660283
vn -0.676643 0.325854 0.660283
vn -0.468251 0.587168 0.660283
vn -0.623490 0.781832 0.000000
vn -0.900969 0.433884 -0.000000
vn -1.000000 0.000000 -0.000000
vn -0.751017 0.000000 0.660283
vn -0.751017 0.000000 0.660283
vn -0.676643 0.325854 0.660283
vn -0.900969 0.433884 -0.000000
vn -1.000000 0.000000 -0.000000
vn -0.900969 -0.433883 0.000000
vn -0.676643 -0.325854 0.660283
vn -0.676643 -0.325854 0.660283
vn -0.751017 0.000000 0.660283
vn -1.000000 0.000000 -0.000000
vn -0.900969 -0.433883 0.000000
vn -0.623490 -0.781831 0.000000
vn -0.468251 -0.587168 0.660283
vn -0.468251 -0.587168 0.660283
vn -0.676643 -0.325854 0.660283
vn -0.900969 -0.433883 0.000000
vn -0.623490 -0.781831 0.000000
vn -0.222521 -0.974928 0.000000
vn -0.167117 -0.732187 0.660283
vn -0.167117 -0.732187 0.660283
vn -0.468251 -0.587168 0.660283
vn -0.623490 -0.781831 0.000000
vn -0.222521 -0.974928 0.000000
vn 0.222521 -0.974928 0.000000
vn 0.167117 -0.732187 0.660283
vn 0.167117 -0.732187 0.660283
vn -0.167117 -0.732187 0.660283
vn -0.222521 -0.974928 0.000000
vn 0.222521 -0.974928 0.000000
vn 0.623490 -0.781831 0.000000
vn 0.468251 -0.587168 0.660283
vn 0.468251 -0.587168 0.660283
vn 0.167117 -0.732187 0.660283
vn 0.222521 -0.974928 0.000000
vn 0.623490 -0.781831 0.000000
vn 0.900969 -0.433883 0.000000
vn 0.676643 -0.325854 0.660283
vn 0.676643 -0.325854 0.660283
vn 0.468251 -0.587168 0.660283
vn 0.623490 -0.781831 0.000000
vn 0.900969 -0.433883 0.000000
vn 1.000000 0.000000 0.000000
vn 0.751017 0.000000 0.660283
vn 0.751017 0.000000 0.660283
vn 0.676643 -0.325854 0.660283
vn 0.900969 -0.433883 0.000000
vn 0.676643 0.325854 0.660283
vn 0.468251 0.587169 0.660283
vn 0.167117 0.732187 0.660283
vn 0.167117 0.732187 0.660283
vn -0.167117 0.732187 0.660283
vn -0.468251 0.587168 0.660283
vn -0.468251 0.587168 0.660283
vn -0.676643 0.325854 0.660283
vn -0.751017 0.000000 0.660283
vn 0.167117 0.732187 0.660283
vn -0.468251 0.587168 0.660283
vn -0.751017 0.000000 0.660283
vn -0.751017 0.000000 0.660283
vn -0.676643 -0.325854 0.660283
vn -0.468251 -0.587168 0.660283
vn -0.468251 -0.587168 0.660283
vn -0.167117 -0.732187 0.660283
vn 0.167117 -0.732187 0.660283
vn -0.751017 0.000000 0.660283
vn -0.468251 -0.587168 0.660283
vn 0.167117 -0.732187 0.660283
vn 0.167117 -0.732187 0.660283
vn 0.468251 -0.587168 0.660283
vn 0.676643 -0.325854 0.660283
vn -0.751017 0.000000 0.660283
vn 0.167117 -0.732187 0.660283
vn 0.676643 -0.325854 0.660283
vn 0.167117 0.732187 0.660283
vn -0.751017 0.000000 0.660283
vn 0.676643 -0.325854 0.660283
vn 0.676643 0.325854 0.660283
vn 0.167117 0.732187 0.660283
vn 0.676643 -0.325854 0.660283
vn 0.751017 0.000000 0.660283
vn 0.676643 0.325854 0.660283
vn 0.676643 -0.325854 0.660283
# 120 vertex normals

vt 0.529146 0.293797 0.000000
vt 0.529145 0.321517 0.000000
vt 0.529144 0.349237 0.000000
vt 0.529144 0.376956 0.000000
vt 0.529143 0.404674 0.000000
vt 0.529158 0.044316 0.000000
vt 0.529158 0.072034 0.000000
vt 0.529157 0.099753 0.000000
vt 0.529157 0.127471 0.000000
vt 0.529156 0.155192 0.000000
vt 0.529153 0.182913 0.000000
vt 0.529150 0.210634 0.000000
vt 0.529148 0.238355 0.000000
vt 0.529147 0.266076 0.000000
vt 0.437351 0.293797 0.025968
vt 0.437350 0.321517 0.025968
vt 0.437350 0.349236 0.025968
vt 0.437349 0.376955 0.025968
vt 0.437349 0.404673 0.025968
vt 0.437364 0.044316 0.025968
vt 0.437363 0.072034 0.025968
vt 0.437363 0.099753 0.025968
vt 0.437362 0.127471 0.025968
vt 0.437361 0.155191 0.025968
vt 0.437359 0.182911 0.025968
vt 0.437356 0.210632 0.025968
vt 0.437353 0.238354 0.025968
vt 0.437352 0.266076 0.025968
vt 0.686164 0.620604 0.025968
vt 0.675383 0.667896 0.025968
vt 0.645176 0.705821 0.025968
vt 0.601524 0.726867 0.025968
vt 0.553074 0.726867 0.025968
vt 0.509423 0.705821 0.025968
vt 0.479216 0.667896 0.025968
vt 0.468435 0.620604 0.025968
vt 0.479216 0.573312 0.025968
vt 0.509423 0.535387 0.025968
vt 0.553074 0.514341 0.025968
vt 0.601524 0.514341 0.025968
vt 0.645176 0.535387 0.025968
vt 0.675383 0.573312 0.025968
vt 0.529158 0.016598 0.000000
vt 0.437364 0.016598 0.025968
# 44 texture coords

g BaseC_low
usemtl LightPole_C
s 1
f 1/1/1 2/2/2 16/16/3 
f 16/16/4 15/15/5 1/1/6 
f 2/2/7 3/3/8 17/17/9 
f 17/17/10 16/16/11 2/2/12 
f 3/3/13 4/4/14 18/18/15 
f 18/18/16 17/17/17 3/3/18 
f 4/4/19 5/5/20 19/19/21 
f 19/19/22 18/18/23 4/4/24 
f 5/43/25 6/6/26 20/20/27 
f 20/20/28 19/44/29 5/43/30 
f 6/6/31 7/7/32 21/21/33 
f 21/21/34 20/20/35 6/6/36 
f 7/7/37 8/8/38 22/22/39 
f 22/22/40 21/21/41 7/7/42 
f 8/8/43 9/9/44 23/23/45 
f 23/23/46 22/22/47 8/8/48 
f 9/9/49 10/10/50 24/24/51 
f 24/24/52 23/23/53 9/9/54 
f 10/10/55 11/11/56 25/25/57 
f 25/25/58 24/24/59 10/10/60 
f 11/11/61 12/12/62 26/26/63 
f 26/26/64 25/25/65 11/11/66 
f 12/12/67 13/13/68 27/27/69 
f 27/27/70 26/26/71 12/12/72 
f 13/13/73 14/14/74 28/28/75 
f 28/28/76 27/27/77 13/13/78 
f 14/14/79 1/1/80 15/15/81 
f 15/15/82 28/28/83 14/14/84 
f 16/30/85 17/31/86 18/32/87 
f 18/32/88 19/33/89 20/34/90 
f 20/34/91 21/35/92 22/36/93 
f 18/32/94 20/34/95 22/36/96 
f 22/36/97 23/37/98 24/38/99 
f 24/38/100 25/39/101 26/40/102 
f 22/36/103 24/38/104 26/40/105 
f 26/40/106 27/41/107 28/42/108 
f 22/36/109 26/40/110 28/42/111 
f 18/32/112 22/36/113 28/42/114 
f 16/30/115 18/32/116 28/42/117 
f 15/29/118 16/30/119 28/42/120 
# 40 faces

#
# object BracketC_low
#

v  -0.016277 0.004073 3.893541
v  0.019540 0.004073 3.893541
v  -0.016277 0.004073 3.933337
v  0.019540 0.004073 3.933337
v  -0.016277 -0.174589 3.893541
v  0.019540 -0.174589 3.893541
v  -0.016277 -0.174589 3.933337
v  0.019540 -0.174589 3.933337
# 8 vertices

vn -0.707107 0.000000 -0.707107
vn 0.707107 0.000000 -0.707107
vn 0.707107 0.000000 -0.707107
vn 0.707107 0.000000 -0.707107
vn -0.707107 0.000000 -0.707107
vn -0.707107 0.000000 -0.707107
vn 0.707107 0.000000 -0.707107
vn 0.707107 0.000000 0.707107
vn 0.707107 0.000000 0.707107
vn 0.707107 0.000000 0.707107
vn 0.707107 0.000000 -0.707107
vn 0.707107 0.000000 -0.707107
vn 0.707107 0.000000 0.707107
vn -0.707107 0.000000 0.707107
vn -0.707107 0.000000 0.707107
vn -0.707107 0.000000 0.707107
vn 0.707107 0.000000 0.707107
vn 0.707107 0.000000 0.707107
vn -0.707107 0.000000 0.707107
vn -0.707107 0.000000 -0.707107
vn -0.707107 0.000000 -0.707107
vn -0.707107 0.000000 -0.707107
vn -0.707107 0.000000 0.707107
vn -0.707107 0.000000 0.707107
# 24 vertex normals

vt 0.962405 0.526514 0.983519
vt 0.930423 0.526514 0.983519
vt 0.862900 0.526514 0.993572
vt 0.894885 0.526514 0.993572
vt 0.962405 0.435247 0.983519
vt 0.930423 0.435247 0.983519
vt 0.862900 0.435247 0.993572
vt 0.894885 0.435247 0.993572
vt 0.827364 0.526514 0.983519
vt 0.827364 0.435247 0.983519
# 10 texture coords

g BracketC_low
usemtl LightPole_C
s 1
f 29/45/121 30/46/122 34/50/123 
f 34/50/124 33/49/125 29/45/126 
f 30/46/127 32/48/128 36/52/129 
f 36/52/130 34/50/131 30/46/132 
f 32/48/133 31/47/134 35/51/135 
f 35/51/136 36/52/137 32/48/138 
f 31/47/139 29/53/140 33/54/141 
f 33/54/142 35/51/143 31/47/144 
# 8 faces

#
# object HoodC_low
#

v  -0.105029 -0.171640 3.863296
v  0.108291 -0.171640 3.863296
v  -0.078931 -0.171640 3.945860
v  0.082193 -0.171640 3.945860
v  -0.105029 -0.590516 3.863296
v  0.108291 -0.590516 3.863296
v  -0.078931 -0.590516 3.945860
v  0.082193 -0.590516 3.945860
v  -0.090258 -0.191560 3.863296
v  0.093520 -0.191560 3.863296
v  0.093520 -0.570596 3.863296
v  -0.090258 -0.570596 3.863296
v  -0.082414 -0.191560 3.881845
v  0.085677 -0.191560 3.881845
v  0.085677 -0.570596 3.881845
v  -0.082414 -0.570596 3.881845
# 16 vertices

vn -0.666704 0.562937 -0.488476
vn -0.474936 0.595181 0.648224
vn 0.474936 0.595181 0.648224
vn 0.474936 0.595181 0.648224
vn 0.666704 0.562936 -0.488476
vn -0.666704 0.562937 -0.488476
vn -0.666704 -0.562936 -0.488476
vn 0.666704 -0.562936 -0.488476
vn 0.474936 -0.595181 0.648224
vn 0.474936 -0.595181 0.648224
vn -0.474936 -0.595181 0.648224
vn -0.666704 -0.562936 -0.488476
vn 0.666704 0.562936 -0.488476
vn 0.474936 0.595181 0.648224
vn 0.474936 -0.595181 0.648224
vn 0.474936 -0.595181 0.648224
vn 0.666704 -0.562936 -0.488476
vn 0.666704 0.562936 -0.488476
vn 0.474936 0.595181 0.648224
vn -0.474936 0.595181 0.648224
vn -0.474936 -0.595181 0.648224
vn -0.474936 -0.595181 0.648224
vn 0.474936 -0.595181 0.648224
vn 0.474936 0.595181 0.648224
vn -0.474936 0.595181 0.648224
vn -0.666704 0.562937 -0.488476
vn -0.666704 -0.562936 -0.488476
vn -0.666704 -0.562936 -0.488476
vn -0.474936 -0.595181 0.648224
vn -0.474936 0.595181 0.648224
vn -0.666704 0.562937 -0.488476
vn 0.666704 0.562936 -0.488476
vn -0.256514 -0.207574 -0.943988
vn -0.256514 -0.207574 -0.943988
vn 0.256514 -0.207574 -0.943988
vn -0.666704 0.562937 -0.488476
vn 0.666704 0.562936 -0.488476
vn 0.666704 -0.562936 -0.488476
vn -0.256514 0.207574 -0.943988
vn -0.256514 0.207574 -0.943988
vn -0.256514 -0.207574 -0.943988
vn 0.666704 0.562936 -0.488476
vn 0.666704 -0.562936 -0.488476
vn -0.666704 -0.562936 -0.488476
vn 0.256514 0.207574 -0.943988
vn 0.256514 0.207574 -0.943988
vn -0.256514 0.207574 -0.943988
vn 0.666704 -0.562936 -0.488476
vn -0.666704 -0.562936 -0.488476
vn -0.666704 0.562937 -0.488476
vn 0.256514 -0.207574 -0.943988
vn 0.256514 -0.207574 -0.943988
vn 0.256514 0.207574 -0.943988
vn -0.666704 -0.562936 -0.488476
vn 0.256514 -0.207574 -0.943988
vn -0.256514 -0.207574 -0.943988
vn -0.574055 -0.782007 -0.242747
vn -0.574055 -0.782007 -0.242747
vn 0.574055 -0.782007 -0.242747
vn 0.256514 -0.207574 -0.943988
vn -0.256514 -0.207574 -0.943988
vn -0.256514 0.207574 -0.943988
vn -0.574055 0.782007 -0.242747
vn -0.574055 0.782007 -0.242747
vn -0.574055 -0.782007 -0.242747
vn -0.256514 -0.207574 -0.943988
vn -0.256514 0.207574 -0.943988
vn 0.256514 0.207574 -0.943988
vn 0.574055 0.782007 -0.242747
vn 0.574055 0.782007 -0.242747
vn -0.574055 0.782007 -0.242747
vn -0.256514 0.207574 -0.943988
vn 0.256514 0.207574 -0.943988
vn 0.256514 -0.207574 -0.943988
vn 0.574055 -0.782007 -0.242747
vn 0.574055 -0.782007 -0.242747
vn 0.574055 0.782007 -0.242747
vn 0.256514 0.207574 -0.943988
# 78 vertex normals

vt 0.775317 0.821562 0.975879
vt 0.965794 0.821562 0.975879
vt 0.657724 0.288537 0.996735
vt 0.801597 0.288537 0.996735
vt 0.775317 0.807465 0.975879
vt 0.470122 0.754584 0.975879
vt 0.657724 0.074558 0.996735
vt 0.801597 0.074558 0.996735
vt 0.788507 0.831738 0.975879
vt 0.952605 0.831738 0.975879
vt 0.483312 0.764760 0.975879
vt 0.788506 0.797288 0.975879
vt 0.795510 0.841213 0.980564
vt 0.945601 0.841213 0.980564
vt 0.501295 0.764760 0.980564
vt 0.795510 0.787812 0.980564
vt 0.634420 0.330715 0.975879
vt 0.824897 0.330715 0.975879
vt 0.634420 0.032381 0.975879
vt 0.824897 0.032380 0.975879
vt 0.580405 0.288536 0.975879
vt 0.878916 0.288536 0.975879
vt 0.580405 0.074558 0.975879
vt 0.878916 0.074558 0.975879
vt 0.595717 0.970648 0.975879
vt 0.470122 0.968562 0.975879
vt 0.595717 0.756670 0.975879
vt 0.965794 0.807465 0.975879
vt 0.582526 0.960472 0.975879
vt 0.483312 0.958386 0.975879
vt 0.952605 0.797288 0.975879
vt 0.582526 0.766846 0.975879
vt 0.564543 0.960472 0.980564
vt 0.501295 0.958386 0.980564
vt 0.945601 0.787812 0.980564
vt 0.564543 0.766846 0.980564
# 36 texture coords

g HoodC_low
usemtl LightPole_C
s 1
f 37/71/145 39/57/146 40/58/147 
f 40/58/148 38/72/149 37/71/150 
f 41/73/151 42/74/152 44/62/153 
f 44/62/154 43/61/155 41/73/156 
f 38/76/157 40/58/158 44/62/159 
f 44/62/160 42/78/161 38/76/162 
f 40/58/163 39/57/164 43/61/165 
f 43/61/166 44/62/167 40/58/168 
f 39/57/169 37/75/170 41/77/171 
f 41/77/172 43/61/173 39/57/174 
f 37/55/175 38/56/176 46/64/177 
f 46/64/178 45/63/179 37/55/180 
f 38/80/181 42/60/182 47/65/183 
f 47/65/184 46/84/185 38/80/186 
f 42/82/187 41/59/188 48/66/189 
f 48/66/190 47/85/191 42/82/192 
f 41/81/193 37/79/194 45/83/195 
f 45/83/196 48/86/197 41/81/198 
f 45/63/199 46/64/200 50/68/201 
f 50/68/202 49/67/203 45/63/204 
f 46/84/205 47/65/206 51/69/207 
f 51/69/208 50/88/209 46/84/210 
f 47/85/211 48/66/212 52/70/213 
f 52/70/214 51/89/215 47/85/216 
f 48/86/217 45/83/218 49/87/219 
f 49/87/220 52/90/221 48/86/222 
# 26 faces

#
# object LightC_low
#

v  -0.082414 -0.191560 3.881845
v  0.085677 -0.191560 3.881845
v  0.085677 -0.570596 3.881845
v  -0.082414 -0.570596 3.881845
# 4 vertices

vn 0.000000 0.000000 -1.000000
vn 0.000000 0.000000 -1.000000
vn 0.000000 0.000000 -1.000000
vn 0.000000 0.000000 -1.000000
vn 0.000000 0.000000 -1.000000
vn 0.000000 0.000000 -1.000000
# 6 vertex normals

vt 0.963611 0.763432 0.980564
vt 0.813518 0.763432 0.980564
vt 0.813518 0.569806 0.980564
vt 0.963611 0.569806 0.980564
# 4 texture coords

g LightC_low
usemtl LightPole_C
s 1
f 53/91/223 54/92/224 55/93/225 
f 55/93/226 56/94/227 53/91/228 
# 2 faces

#
# object LightPole_C_low
#

v  -0.022520 -0.025268 0.145452
v  0.025782 -0.025268 0.145452
v  -0.022520 0.028400 0.145452
v  0.025782 0.028400 0.145452
v  -0.022520 -0.025269 3.958786
v  0.025782 -0.025269 3.958786
v  -0.022520 0.028400 3.958786
v  0.025782 0.028400 3.958786
v  0.025782 -0.025269 2.052119
v  -0.022520 -0.025269 2.052119
v  0.025782 0.028400 2.052119
v  -0.022520 0.028400 2.052119
# 12 vertices

vn -0.577350 -0.577350 0.577350
vn 0.577350 -0.577350 0.577350
vn 0.577350 0.577350 0.577350
vn 0.577350 0.577350 0.577350
vn -0.577350 0.577350 0.577350
vn -0.577350 -0.577350 0.577350
vn 0.707106 -0.707107 -0.000000
vn 0.707107 -0.707107 -0.000000
vn -0.707107 -0.707107 -0.000000
vn -0.707107 -0.707107 -0.000000
vn -0.707106 -0.707107 -0.000000
vn 0.707106 -0.707107 -0.000000
vn 0.707107 0.707107 0.000000
vn 0.707107 0.707107 0.000000
vn 0.707107 -0.707107 -0.000000
vn 0.707107 -0.707107 -0.000000
vn 0.707106 -0.707107 -0.000000
vn 0.707107 0.707107 0.000000
vn -0.707107 0.707107 0.000000
vn -0.707107 0.707107 0.000000
vn 0.707107 0.707107 0.000000
vn 0.707107 0.707107 0.000000
vn 0.707107 0.707107 0.000000
vn -0.707107 0.707107 0.000000
vn -0.707106 -0.707107 -0.000000
vn -0.707107 -0.707107 -0.000000
vn -0.707107 0.707107 0.000000
vn -0.707107 0.707107 0.000000
vn -0.707107 0.707107 0.000000
vn -0.707106 -0.707107 -0.000000
vn 0.577350 -0.577350 0.577350
vn -0.577350 -0.577350 0.577350
vn -0.707107 -0.707107 -0.000000
vn -0.707107 -0.707107 -0.000000
vn 0.707107 -0.707107 -0.000000
vn 0.577350 -0.577350 0.577350
vn 0.577350 0.577350 0.577350
vn 0.577350 -0.577350 0.577350
vn 0.707107 -0.707107 -0.000000
vn 0.707107 -0.707107 -0.000000
vn 0.707107 0.707107 0.000000
vn 0.577350 0.577350 0.577350
vn -0.577350 0.577350 0.577350
vn 0.577350 0.577350 0.577350
vn 0.707107 0.707107 0.000000
vn 0.707107 0.707107 0.000000
vn -0.707107 0.707107 0.000000
vn -0.577350 0.577350 0.577350
vn -0.577350 -0.577350 0.577350
vn -0.577350 0.577350 0.577350
vn -0.707107 0.707107 0.000000
vn -0.707107 0.707107 0.000000
vn -0.707107 -0.707107 -0.000000
vn -0.577350 -0.577350 0.577350
# 54 vertex normals

vt 0.111021 0.988861 0.036742
vt 0.067896 0.988858 0.036742
vt 0.158938 0.988864 0.036742
vt 0.019976 0.988855 0.036742
vt 0.905827 0.350974 1.000000
vt 0.906177 0.321075 1.000000
vt 0.357361 0.013158 1.000000
vt 0.400331 0.013066 1.000000
vt 0.202066 0.988867 0.036742
vt 0.309617 0.013260 1.000000
vt 0.266649 0.013353 1.000000
vt 0.218904 0.013454 1.000000
vt 0.272951 0.983769 0.518371
vt 0.315923 0.983677 0.518371
vt 0.225206 0.983871 0.518371
vt 0.406640 0.983482 0.518371
vt 0.363669 0.983573 0.518371
vt 0.068111 0.014862 0.518371
vt 0.111238 0.014865 0.518371
vt 0.020191 0.014859 0.518371
vt 0.202287 0.014872 0.518371
vt 0.159159 0.014869 0.518371
vt 0.939048 0.351363 1.000000
vt 0.939398 0.321463 1.000000
# 24 texture coords

g LightPole_C_low
usemtl LightPole_C
s 1
f 61/99/229 62/100/230 64/118/231 
f 64/118/232 63/117/233 61/99/234 
f 58/96/235 65/112/236 66/113/237 
f 66/113/238 57/95/239 58/96/240 
f 60/98/241 67/114/242 65/112/243 
f 65/112/244 58/96/245 60/98/246 
f 59/97/247 68/116/248 67/115/249 
f 67/115/250 60/103/251 59/97/252 
f 57/95/253 66/113/254 68/116/255 
f 68/116/256 59/97/257 57/95/258 
f 62/105/259 61/104/260 66/108/261 
f 66/108/262 65/107/263 62/105/264 
f 64/106/265 62/105/266 65/107/267 
f 65/107/268 67/109/269 64/106/270 
f 63/101/271 64/102/272 67/110/273 
f 67/110/274 68/111/275 63/101/276 
f 61/104/277 63/101/278 68/111/279 
f 68/111/280 66/108/281 61/104/282 
# 18 faces

#
# object PlateC_low
#

v  -0.075949 -0.076014 0.145452
v  0.079211 -0.076014 0.145452
v  0.079211 0.079146 0.145452
v  -0.075949 0.079146 0.145452
v  -0.078013 -0.078079 0.101578
v  0.081276 -0.078079 0.101578
v  0.081276 0.081210 0.101578
v  -0.078013 0.081210 0.101578
# 8 vertices

vn -0.564633 -0.564632 0.601980
vn 0.564634 -0.564632 0.601980
vn 0.564633 0.564632 0.601980
vn 0.564633 0.564632 0.601980
vn -0.564634 0.564632 0.601980
vn -0.564633 -0.564632 0.601980
vn -0.705546 -0.705548 0.066392
vn 0.705546 -0.705548 0.066392
vn 0.564634 -0.564632 0.601980
vn 0.564634 -0.564632 0.601980
vn -0.564633 -0.564632 0.601980
vn -0.705546 -0.705548 0.066392
vn 0.705546 -0.705548 0.066392
vn 0.705546 0.705548 0.066392
vn 0.564633 0.564632 0.601980
vn 0.564633 0.564632 0.601980
vn 0.564634 -0.564632 0.601980
vn 0.705546 -0.705548 0.066392
vn 0.705546 0.705548 0.066392
vn -0.705546 0.705548 0.066392
vn -0.564634 0.564632 0.601980
vn -0.564634 0.564632 0.601980
vn 0.564633 0.564632 0.601980
vn 0.705546 0.705548 0.066392
vn -0.705546 0.705548 0.066392
vn -0.705546 -0.705548 0.066392
vn -0.564633 -0.564632 0.601980
vn -0.564633 -0.564632 0.601980
vn -0.564634 0.564632 0.601980
vn -0.705546 0.705548 0.066392
# 30 vertex normals

vt 0.611661 0.384846 0.036742
vt 0.750210 0.384846 0.036742
vt 0.750210 0.464108 0.036742
vt 0.611661 0.464108 0.036742
vt 0.609819 0.362408 0.025659
vt 0.752052 0.362408 0.025659
vt 0.789432 0.465162 0.025659
vt 0.609819 0.486546 0.025659
vt 0.572439 0.383791 0.025659
vt 0.789432 0.383791 0.025659
vt 0.752052 0.486546 0.025659
vt 0.572439 0.465162 0.025659
# 12 texture coords

g PlateC_low
usemtl LightPole_C
s 1
f 69/119/283 70/120/284 71/121/285 
f 71/121/286 72/122/287 69/119/288 
f 73/123/289 74/124/290 70/120/291 
f 70/120/292 69/119/293 73/123/294 
f 74/128/295 75/125/296 71/121/297 
f 71/121/298 70/120/299 74/128/300 
f 75/129/301 76/126/302 72/122/303 
f 72/122/304 71/121/305 75/129/306 
f 76/130/307 73/127/308 69/119/309 
f 69/119/310 72/122/311 76/130/312 
# 10 faces

